<svg xmlns="http://www.w3.org/2000/svg" xmlns:xlink="http://www.w3.org/1999/xlink" contentStyleType="text/css" data-diagram-type="CLASS" height="504px" preserveAspectRatio="none" style="width:1066px;height:504px;background:#FFFFFF;" version="1.1" viewBox="0 0 1066 504" width="1066px" zoomAndPan="magnify"><?plantuml $version$?><defs/><g><!--class Vector3--><g class="entity" data-qualified-name="Vector3" data-source-line="8" id="ent0001"><rect fill="#F1F1F1" height="118.6158" rx="2.5" ry="2.5" style="stroke:#181818;stroke-width:0.5;" width="89.6204" x="7" y="86.1"/><ellipse cx="22" cy="108.806" fill="#F1F1F1" rx="11" ry="11" style="stroke:#181818;stroke-width:1;"/><path d="M21.6719,115.4779 Q20.75,115.4779 19.8594,115.306 Q18.9688,115.1185 18.1875,114.7435 L18.1875,112.4935 Q19.1406,112.9779 20.0156,113.2123 Q20.9063,113.431 21.75,113.431 Q22.625,113.431 23.1875,113.1341 Q23.75,112.8373 23.75,112.056 Q23.75,111.5091 23.4531,111.2123 Q23.1563,110.8998 22.5938,110.6185 Q22.0313,110.3373 21.25,109.931 Q20.4688,109.5091 19.8125,109.0248 Q19.1719,108.5248 18.7969,107.8529 Q18.4219,107.181 18.4219,106.2279 Q18.4219,104.6029 19.5156,103.806 Q20.625,102.9935 22.4063,102.9935 Q23.125,102.9935 24.1094,103.1654 Q25.0938,103.3216 26.0469,103.7748 L25.2656,105.6966 Q24.4219,105.3373 23.7344,105.1966 Q23.0625,105.0404 22.5469,105.0404 Q21.7031,105.0404 21.3125,105.3841 Q20.9375,105.7123 20.9375,106.3529 Q20.9375,106.8373 21.1719,107.1498 Q21.4219,107.4466 21.8906,107.6966 Q22.375,107.9466 23.1094,108.3216 Q24.1094,108.806 24.8125,109.2748 Q25.5156,109.7435 25.8906,110.3685 Q26.2656,110.9779 26.2656,111.9154 Q26.2656,113.1029 25.6875,113.8998 Q25.125,114.681 24.0781,115.0873 Q23.0469,115.4779 21.6719,115.4779 Z " fill="#000000"/><text fill="#000000" font-family="sans-serif" font-size="12" font-style="italic" lengthAdjust="spacing" textLength="61.6204" x="34" y="103.9281">&#171;DataType&#187;</text><text fill="#000000" font-family="sans-serif" font-size="14" lengthAdjust="spacing" textLength="50.3298" x="39.6453" y="122.41">Vector3</text><line style="stroke:#181818;stroke-width:0.5;" x1="8" x2="95.6204" y1="131.512" y2="131.512"/><g data-visibility-modifier="PUBLIC_FIELD"><ellipse cx="18" cy="146.546" fill="none" rx="3" ry="3" style="stroke:#038048;stroke-width:1;"/></g><text fill="#000000" font-family="sans-serif" font-size="14" lengthAdjust="spacing" textLength="40.8519" x="27" y="150.478">float x</text><g data-visibility-modifier="PUBLIC_FIELD"><ellipse cx="18" cy="165.6139" fill="none" rx="3" ry="3" style="stroke:#038048;stroke-width:1;"/></g><text fill="#000000" font-family="sans-serif" font-size="14" lengthAdjust="spacing" textLength="40.5858" x="27" y="169.5459">float y</text><g data-visibility-modifier="PUBLIC_FIELD"><ellipse cx="18" cy="184.6818" fill="none" rx="3" ry="3" style="stroke:#038048;stroke-width:1;"/></g><text fill="#000000" font-family="sans-serif" font-size="14" lengthAdjust="spacing" textLength="40.0258" x="27" y="188.6138">float z</text><line style="stroke:#181818;stroke-width:0.5;" x1="8" x2="95.6204" y1="196.7158" y2="196.7158"/></g><!--class Geometry--><g class="entity" data-qualified-name="Geometry" data-source-line="15" id="ent0002"><rect fill="#F1F1F1" height="86.1358" rx="2.5" ry="2.5" style="stroke:#181818;stroke-width:0.5;" width="220.8933" x="830.36" y="102.34"/><ellipse cx="906.3797" cy="118.34" fill="#A9DCDF" rx="11" ry="11" style="stroke:#181818;stroke-width:1;"/><path d="M901.5516,124.09 L904.8954,111.9025 L908.036,111.9025 L911.411,124.09 L908.9422,124.09 L908.2079,121.0744 L904.6922,121.0744 L903.9422,124.09 L901.5516,124.09 Z M905.9579,116.0431 L905.2079,119.0431 L907.7235,119.0431 L907.0047,116.0431 Q906.8641,115.465 906.7391,114.9181 Q906.6141,114.3556 906.4735,113.7775 Q906.3641,114.3556 906.2235,114.9181 Q906.0829,115.465 905.9579,116.0431 Z " fill="#000000"/><text fill="#000000" font-family="sans-serif" font-size="14" font-style="italic" lengthAdjust="spacing" textLength="60.3538" x="926.8797" y="123.772">Geometry</text><line style="stroke:#181818;stroke-width:0.5;" x1="831.36" x2="1050.2533" y1="134.34" y2="134.34"/><g data-visibility-modifier="PUBLIC_FIELD"><ellipse cx="841.36" cy="149.374" fill="none" rx="3" ry="3" style="stroke:#038048;stroke-width:1;"/></g><text fill="#000000" font-family="sans-serif" font-size="14" lengthAdjust="spacing" textLength="92.7076" x="850.36" y="153.3059">Vector3 origin</text><line style="stroke:#181818;stroke-width:0.5;" x1="831.36" x2="1050.2533" y1="161.4079" y2="161.4079"/><g data-visibility-modifier="PUBLIC_METHOD"><ellipse cx="841.36" cy="176.4419" fill="#84BE84" rx="3" ry="3" style="stroke:#038048;stroke-width:1;"/></g><text fill="#000000" font-family="sans-serif" font-size="14" font-style="italic" lengthAdjust="spacing" textLength="194.8933" x="850.36" y="180.3739">bool is_inside(position: Vector3)</text></g><!--class Detector--><g class="entity" data-qualified-name="Detector" data-source-line="21" id="ent0003"><rect fill="#F1F1F1" height="276.815" rx="2.5" ry="2.5" style="stroke:#181818;stroke-width:0.5;" width="433.4545" x="247.08" y="7"/><ellipse cx="431.0114" cy="23" fill="#ADD1B2" rx="11" ry="11" style="stroke:#181818;stroke-width:1;"/><path d="M430.4801,29.9219 Q428.7301,29.9219 427.5895,29.1875 Q426.4645,28.4375 425.902,27.0938 Q425.3551,25.7344 425.3551,23.9375 Q425.3551,21.9063 426.0114,20.4531 Q426.6676,19 427.9489,18.2188 Q429.2301,17.4375 431.1051,17.4375 Q431.9957,17.4375 432.6676,17.625 Q433.3395,17.7969 434.027,18.1406 L433.2145,20.1563 Q432.5895,19.8438 432.0426,19.7188 Q431.5114,19.5938 431.027,19.5938 Q429.8551,19.5938 429.152,20.125 Q428.4489,20.6563 428.152,21.6094 Q427.8551,22.5625 427.8551,23.8281 Q427.8551,25.8438 428.5739,26.8125 Q429.2926,27.7656 430.8864,27.7656 Q431.4801,27.7656 432.1051,27.6094 Q432.7301,27.4531 433.5582,27.0781 L433.5582,29.2969 Q432.8239,29.6094 432.027,29.7656 Q431.2457,29.9219 430.4801,29.9219 Z " fill="#000000"/><text fill="#000000" font-family="sans-serif" font-size="14" lengthAdjust="spacing" textLength="57.0918" x="451.5114" y="28.432">Detector</text><line style="stroke:#181818;stroke-width:0.5;" x1="248.08" x2="679.5345" y1="39" y2="39"/><g data-visibility-modifier="PUBLIC_FIELD"><ellipse cx="258.08" cy="54.034" fill="none" rx="3" ry="3" style="stroke:#038048;stroke-width:1;"/></g><text fill="#000000" font-family="sans-serif" font-size="14" lengthAdjust="spacing" textLength="133.0975" x="267.08" y="57.9659">Geometry geometry</text><g data-visibility-modifier="PUBLIC_FIELD"><ellipse cx="258.08" cy="73.1019" fill="none" rx="3" ry="3" style="stroke:#038048;stroke-width:1;"/></g><text fill="#000000" font-family="sans-serif" font-size="14" lengthAdjust="spacing" textLength="116.3115" x="267.08" y="77.0339">int num_channels</text><g data-visibility-modifier="PUBLIC_FIELD"><ellipse cx="258.08" cy="92.1698" fill="none" rx="3" ry="3" style="stroke:#038048;stroke-width:1;"/></g><text fill="#000000" font-family="sans-serif" font-size="14" lengthAdjust="spacing" textLength="167.7753" x="267.08" y="96.1018">float[1..*] channel_widths</text><g data-visibility-modifier="PUBLIC_FIELD"><ellipse cx="258.08" cy="111.2377" fill="none" rx="3" ry="3" style="stroke:#038048;stroke-width:1;"/></g><text fill="#000000" font-family="sans-serif" font-size="14" lengthAdjust="spacing" textLength="142.4634" x="267.08" y="115.1697">float channel_spacing</text><g data-visibility-modifier="PUBLIC_FIELD"><ellipse cx="258.08" cy="130.3056" fill="none" rx="3" ry="3" style="stroke:#038048;stroke-width:1;"/></g><text fill="#000000" font-family="sans-serif" font-size="14" lengthAdjust="spacing" textLength="181.5513" x="267.08" y="134.2376">float channel_start_position</text><g data-visibility-modifier="PUBLIC_FIELD"><ellipse cx="258.08" cy="149.3735" fill="none" rx="3" ry="3" style="stroke:#038048;stroke-width:1;"/></g><text fill="#000000" font-family="sans-serif" font-size="14" lengthAdjust="spacing" textLength="159.6974" x="267.08" y="153.3055">String channel_direction</text><g data-visibility-modifier="PUBLIC_FIELD"><ellipse cx="258.08" cy="168.4415" fill="none" rx="3" ry="3" style="stroke:#038048;stroke-width:1;"/></g><text fill="#000000" font-family="sans-serif" font-size="14" lengthAdjust="spacing" textLength="96.8796" x="267.08" y="172.3734">float threshold</text><g data-visibility-modifier="PUBLIC_FIELD"><ellipse cx="258.08" cy="187.5094" fill="none" rx="3" ry="3" style="stroke:#038048;stroke-width:1;"/></g><text fill="#000000" font-family="sans-serif" font-size="14" lengthAdjust="spacing" textLength="117.1516" x="267.08" y="191.4414">float drift_velocity</text><g data-visibility-modifier="PUBLIC_FIELD"><ellipse cx="258.08" cy="206.5773" fill="none" rx="3" ry="3" style="stroke:#038048;stroke-width:1;"/></g><text fill="#000000" font-family="sans-serif" font-size="14" lengthAdjust="spacing" textLength="169.3433" x="267.08" y="210.5093">float electron_lifetime_ms</text><g data-visibility-modifier="PUBLIC_FIELD"><ellipse cx="258.08" cy="225.6452" fill="none" rx="3" ry="3" style="stroke:#038048;stroke-width:1;"/></g><text fill="#000000" font-family="sans-serif" font-size="14" lengthAdjust="spacing" textLength="158.6054" x="267.08" y="229.5772">float channel_resolution</text><g data-visibility-modifier="PUBLIC_FIELD"><ellipse cx="258.08" cy="244.7131" fill="none" rx="3" ry="3" style="stroke:#038048;stroke-width:1;"/></g><text fill="#000000" font-family="sans-serif" font-size="14" lengthAdjust="spacing" textLength="103.1516" x="267.08" y="248.6451">int signal_width</text><line style="stroke:#181818;stroke-width:0.5;" x1="248.08" x2="679.5345" y1="256.7471" y2="256.7471"/><g data-visibility-modifier="PUBLIC_METHOD"><ellipse cx="258.08" cy="271.781" fill="#84BE84" rx="3" ry="3" style="stroke:#038048;stroke-width:1;"/></g><text fill="#000000" font-family="sans-serif" font-size="14" lengthAdjust="spacing" textLength="407.4545" x="267.08" y="275.713">Event process_emission(emission: Emission, position: Vector3)</text></g><!--class Event--><g class="entity" data-qualified-name="Event" data-source-line="36" id="ent0004"><rect fill="#F1F1F1" height="105.2038" rx="2.5" ry="2.5" style="stroke:#181818;stroke-width:0.5;" width="165.5795" x="381.02" y="383.82"/><ellipse cx="441.3108" cy="399.82" fill="#F1F1F1" rx="11" ry="11" style="stroke:#181818;stroke-width:1;"/><path d="M440.9827,406.4919 Q440.0608,406.4919 439.1702,406.32 Q438.2796,406.1325 437.4983,405.7575 L437.4983,403.5075 Q438.4514,403.9919 439.3264,404.2263 Q440.2171,404.445 441.0608,404.445 Q441.9358,404.445 442.4983,404.1481 Q443.0608,403.8513 443.0608,403.07 Q443.0608,402.5231 442.7639,402.2263 Q442.4671,401.9138 441.9046,401.6325 Q441.3421,401.3513 440.5608,400.945 Q439.7796,400.5231 439.1233,400.0388 Q438.4827,399.5388 438.1077,398.8669 Q437.7327,398.195 437.7327,397.2419 Q437.7327,395.6169 438.8264,394.82 Q439.9358,394.0075 441.7171,394.0075 Q442.4358,394.0075 443.4202,394.1794 Q444.4046,394.3356 445.3577,394.7888 L444.5764,396.7106 Q443.7327,396.3513 443.0452,396.2106 Q442.3733,396.0544 441.8577,396.0544 Q441.0139,396.0544 440.6233,396.3981 Q440.2483,396.7263 440.2483,397.3669 Q440.2483,397.8513 440.4827,398.1638 Q440.7327,398.4606 441.2014,398.7106 Q441.6858,398.9606 442.4202,399.3356 Q443.4202,399.82 444.1233,400.2888 Q444.8264,400.7575 445.2014,401.3825 Q445.5764,401.9919 445.5764,402.9294 Q445.5764,404.1169 444.9983,404.9138 Q444.4358,405.695 443.3889,406.1013 Q442.3577,406.4919 440.9827,406.4919 Z " fill="#000000"/><text fill="#000000" font-family="sans-serif" font-size="14" lengthAdjust="spacing" textLength="36.4978" x="461.8108" y="405.252">Event</text><line style="stroke:#181818;stroke-width:0.5;" x1="382.02" x2="545.5995" y1="415.82" y2="415.82"/><g data-visibility-modifier="PUBLIC_FIELD"><ellipse cx="392.02" cy="430.854" fill="none" rx="3" ry="3" style="stroke:#038048;stroke-width:1;"/></g><text fill="#000000" font-family="sans-serif" font-size="14" lengthAdjust="spacing" textLength="112.1396" x="401.02" y="434.7859">int[1..*] channels</text><g data-visibility-modifier="PUBLIC_FIELD"><ellipse cx="392.02" cy="449.9219" fill="none" rx="3" ry="3" style="stroke:#038048;stroke-width:1;"/></g><text fill="#000000" font-family="sans-serif" font-size="14" lengthAdjust="spacing" textLength="139.5795" x="401.02" y="453.8539">float[1..*] amplitudes</text><g data-visibility-modifier="PUBLIC_FIELD"><ellipse cx="392.02" cy="468.9898" fill="none" rx="3" ry="3" style="stroke:#038048;stroke-width:1;"/></g><text fill="#000000" font-family="sans-serif" font-size="14" lengthAdjust="spacing" textLength="121.0155" x="401.02" y="472.9218">Emission emission</text><line style="stroke:#181818;stroke-width:0.5;" x1="382.02" x2="545.5995" y1="481.0238" y2="481.0238"/></g><!--reverse link Vector3 to Detector--><!--link Detector to Geometry--><g class="link" data-entity-1="ent0003" data-entity-2="ent0002" data-link-type="dependency" data-source-line="44" id="lnk6"><path codeLine="44" d="M681.02,145.02 C732.54,145.02 780.4,145.02 824.87,145.02" fill="none" id="Detector-to-Geometry" style="stroke:#181818;stroke-width:1;"/><polygon fill="#181818" points="829.87,145.02,820.87,141.02,824.87,145.02,820.87,149.02,829.87,145.02" style="stroke:#181818;stroke-width:1;stroke-linejoin:miter;stroke-miterlimit:10;"/></g><!--link Detector to Event--><g class="link" data-entity-1="ent0003" data-entity-2="ent0004" data-link-type="dependency" data-source-line="45" id="lnk7"><path codeLine="45" d="M463.81,284.1 C463.81,319.52 463.81,350.49 463.81,378.57" fill="none" id="Detector-to-Event" style="stroke:#181818;stroke-width:1;"/><polygon fill="#181818" points="463.81,383.57,467.81,374.57,463.81,378.57,459.81,374.57,463.81,383.57" style="stroke:#181818;stroke-width:1;stroke-linejoin:miter;stroke-miterlimit:10;"/></g><?plantuml-src RL9DRy8m3BtdL_Z8Fa2WQHU4E87s0pRjWb0L6jDQf76L63Q6-EzBeKsPnirvjjzxiHrsv6hjTGMM7CgnHc0l9IiLKiQnmO0rJ5x7DwZNRdT1nsEbX6iGXWsBS0M6FEP2x2AB-7qky1dVx5zWDbjeqHzHPZw7au8ds5hM0jzzUEp37tLMIkbD9D6H9BSw17X3hb3yyThU4REdWbo3dBhwSxJ35YXav08P7DGSg74rxReU6dxX0gL47_ck0WkKI_egaEIADcX0SW9kNsLvgPr36vBbrMGqUbn3YsTVPAJiimaFjSx95NSIehradT4c_ou-LgQ2VhIfLqgFeMHhUiXusafsGCivoSr0qSPcpowpj4MX2hFgZhj8ntRVYJH_3LGutNwdmPO7Z6ZjESSGCgmeX5Wzw88fBDle6UuFlJsBAy-fbVaxl7z3rLLjIVRn5YyMMWNeH2Dj94w7DboLP0owTTgdIeiT-k4yBVO6DX6-MFe5?></g></svg>