<svg xmlns="http://www.w3.org/2000/svg" xmlns:xlink="http://www.w3.org/1999/xlink" contentStyleType="text/css" data-diagram-type="CLASS" height="523px" preserveAspectRatio="none" style="width:1066px;height:523px;background:#FFFFFF;" version="1.1" viewBox="0 0 1066 523" width="1066px" zoomAndPan="magnify"><?plantuml $version$?><defs/><g><!--class Vector3--><g class="entity" data-qualified-name="Vector3" data-source-line="8" id="ent0001"><rect fill="#F1F1F1" height="118.6158" rx="2.5" ry="2.5" style="stroke:#181818;stroke-width:0.5;" width="89.6204" x="7" y="95.64"/><ellipse cx="22" cy="118.346" fill="#F1F1F1" rx="11" ry="11" style="stroke:#181818;stroke-width:1;"/><path d="M21.6719,125.0179 Q20.75,125.0179 19.8594,124.846 Q18.9688,124.6585 18.1875,124.2835 L18.1875,122.0335 Q19.1406,122.5179 20.0156,122.7523 Q20.9063,122.971 21.75,122.971 Q22.625,122.971 23.1875,122.6741 Q23.75,122.3773 23.75,121.596 Q23.75,121.0491 23.4531,120.7523 Q23.1563,120.4398 22.5938,120.1585 Q22.0313,119.8773 21.25,119.471 Q20.4688,119.0491 19.8125,118.5648 Q19.1719,118.0648 18.7969,117.3929 Q18.4219,116.721 18.4219,115.7679 Q18.4219,114.1429 19.5156,113.346 Q20.625,112.5335 22.4063,112.5335 Q23.125,112.5335 24.1094,112.7054 Q25.0938,112.8616 26.0469,113.3148 L25.2656,115.2366 Q24.4219,114.8773 23.7344,114.7366 Q23.0625,114.5804 22.5469,114.5804 Q21.7031,114.5804 21.3125,114.9241 Q20.9375,115.2523 20.9375,115.8929 Q20.9375,116.3773 21.1719,116.6898 Q21.4219,116.9866 21.8906,117.2366 Q22.375,117.4866 23.1094,117.8616 Q24.1094,118.346 24.8125,118.8148 Q25.5156,119.2835 25.8906,119.9085 Q26.2656,120.5179 26.2656,121.4554 Q26.2656,122.6429 25.6875,123.4398 Q25.125,124.221 24.0781,124.6273 Q23.0469,125.0179 21.6719,125.0179 Z " fill="#000000"/><text fill="#000000" font-family="sans-serif" font-size="12" font-style="italic" lengthAdjust="spacing" textLength="61.6204" x="34" y="113.4681">&#171;DataType&#187;</text><text fill="#000000" font-family="sans-serif" font-size="14" lengthAdjust="spacing" textLength="50.3298" x="39.6453" y="131.95">Vector3</text><line style="stroke:#181818;stroke-width:0.5;" x1="8" x2="95.6204" y1="141.052" y2="141.052"/><g data-visibility-modifier="PUBLIC_FIELD"><ellipse cx="18" cy="156.086" fill="none" rx="3" ry="3" style="stroke:#038048;stroke-width:1;"/></g><text fill="#000000" font-family="sans-serif" font-size="14" lengthAdjust="spacing" textLength="40.8519" x="27" y="160.018">float x</text><g data-visibility-modifier="PUBLIC_FIELD"><ellipse cx="18" cy="175.1539" fill="none" rx="3" ry="3" style="stroke:#038048;stroke-width:1;"/></g><text fill="#000000" font-family="sans-serif" font-size="14" lengthAdjust="spacing" textLength="40.5858" x="27" y="179.0859">float y</text><g data-visibility-modifier="PUBLIC_FIELD"><ellipse cx="18" cy="194.2218" fill="none" rx="3" ry="3" style="stroke:#038048;stroke-width:1;"/></g><text fill="#000000" font-family="sans-serif" font-size="14" lengthAdjust="spacing" textLength="40.0258" x="27" y="198.1538">float z</text><line style="stroke:#181818;stroke-width:0.5;" x1="8" x2="95.6204" y1="206.2558" y2="206.2558"/></g><!--class Geometry--><g class="entity" data-qualified-name="Geometry" data-source-line="15" id="ent0002"><rect fill="#F1F1F1" height="86.1358" rx="2.5" ry="2.5" style="stroke:#181818;stroke-width:0.5;" width="220.8933" x="830.36" y="111.88"/><ellipse cx="906.3797" cy="127.88" fill="#A9DCDF" rx="11" ry="11" style="stroke:#181818;stroke-width:1;"/><path d="M901.5516,133.63 L904.8954,121.4425 L908.036,121.4425 L911.411,133.63 L908.9422,133.63 L908.2079,130.6144 L904.6922,130.6144 L903.9422,133.63 L901.5516,133.63 Z M905.9579,125.5831 L905.2079,128.5831 L907.7235,128.5831 L907.0047,125.5831 Q906.8641,125.005 906.7391,124.4581 Q906.6141,123.8956 906.4735,123.3175 Q906.3641,123.8956 906.2235,124.4581 Q906.0829,125.005 905.9579,125.5831 Z " fill="#000000"/><text fill="#000000" font-family="sans-serif" font-size="14" font-style="italic" lengthAdjust="spacing" textLength="60.3538" x="926.8797" y="133.312">Geometry</text><line style="stroke:#181818;stroke-width:0.5;" x1="831.36" x2="1050.2533" y1="143.88" y2="143.88"/><g data-visibility-modifier="PUBLIC_FIELD"><ellipse cx="841.36" cy="158.914" fill="none" rx="3" ry="3" style="stroke:#038048;stroke-width:1;"/></g><text fill="#000000" font-family="sans-serif" font-size="14" lengthAdjust="spacing" textLength="92.7076" x="850.36" y="162.8459">Vector3 origin</text><line style="stroke:#181818;stroke-width:0.5;" x1="831.36" x2="1050.2533" y1="170.9479" y2="170.9479"/><g data-visibility-modifier="PUBLIC_METHOD"><ellipse cx="841.36" cy="185.9819" fill="#84BE84" rx="3" ry="3" style="stroke:#038048;stroke-width:1;"/></g><text fill="#000000" font-family="sans-serif" font-size="14" font-style="italic" lengthAdjust="spacing" textLength="194.8933" x="850.36" y="189.9139">bool is_inside(position: Vector3)</text></g><!--class Detector--><g class="entity" data-qualified-name="Detector" data-source-line="20" id="ent0003"><rect fill="#F1F1F1" height="295.8829" rx="2.5" ry="2.5" style="stroke:#181818;stroke-width:0.5;" width="433.4545" x="247.08" y="7"/><ellipse cx="431.0114" cy="23" fill="#ADD1B2" rx="11" ry="11" style="stroke:#181818;stroke-width:1;"/><path d="M430.4801,29.9219 Q428.7301,29.9219 427.5895,29.1875 Q426.4645,28.4375 425.902,27.0938 Q425.3551,25.7344 425.3551,23.9375 Q425.3551,21.9063 426.0114,20.4531 Q426.6676,19 427.9489,18.2188 Q429.2301,17.4375 431.1051,17.4375 Q431.9957,17.4375 432.6676,17.625 Q433.3395,17.7969 434.027,18.1406 L433.2145,20.1563 Q432.5895,19.8438 432.0426,19.7188 Q431.5114,19.5938 431.027,19.5938 Q429.8551,19.5938 429.152,20.125 Q428.4489,20.6563 428.152,21.6094 Q427.8551,22.5625 427.8551,23.8281 Q427.8551,25.8438 428.5739,26.8125 Q429.2926,27.7656 430.8864,27.7656 Q431.4801,27.7656 432.1051,27.6094 Q432.7301,27.4531 433.5582,27.0781 L433.5582,29.2969 Q432.8239,29.6094 432.027,29.7656 Q431.2457,29.9219 430.4801,29.9219 Z " fill="#000000"/><text fill="#000000" font-family="sans-serif" font-size="14" lengthAdjust="spacing" textLength="57.0918" x="451.5114" y="28.432">Detector</text><line style="stroke:#181818;stroke-width:0.5;" x1="248.08" x2="679.5345" y1="39" y2="39"/><g data-visibility-modifier="PUBLIC_FIELD"><ellipse cx="258.08" cy="54.034" fill="none" rx="3" ry="3" style="stroke:#038048;stroke-width:1;"/></g><text fill="#000000" font-family="sans-serif" font-size="14" lengthAdjust="spacing" textLength="133.0975" x="267.08" y="57.9659">Geometry geometry</text><g data-visibility-modifier="PUBLIC_FIELD"><ellipse cx="258.08" cy="73.1019" fill="none" rx="3" ry="3" style="stroke:#038048;stroke-width:1;"/></g><text fill="#000000" font-family="sans-serif" font-size="14" lengthAdjust="spacing" textLength="116.3115" x="267.08" y="77.0339">int num_channels</text><g data-visibility-modifier="PUBLIC_FIELD"><ellipse cx="258.08" cy="92.1698" fill="none" rx="3" ry="3" style="stroke:#038048;stroke-width:1;"/></g><text fill="#000000" font-family="sans-serif" font-size="14" lengthAdjust="spacing" textLength="167.7753" x="267.08" y="96.1018">float[1..*] channel_widths</text><g data-visibility-modifier="PUBLIC_FIELD"><ellipse cx="258.08" cy="111.2377" fill="none" rx="3" ry="3" style="stroke:#038048;stroke-width:1;"/></g><text fill="#000000" font-family="sans-serif" font-size="14" lengthAdjust="spacing" textLength="142.4634" x="267.08" y="115.1697">float channel_spacing</text><g data-visibility-modifier="PUBLIC_FIELD"><ellipse cx="258.08" cy="130.3056" fill="none" rx="3" ry="3" style="stroke:#038048;stroke-width:1;"/></g><text fill="#000000" font-family="sans-serif" font-size="14" lengthAdjust="spacing" textLength="181.5513" x="267.08" y="134.2376">float channel_start_position</text><g data-visibility-modifier="PUBLIC_FIELD"><ellipse cx="258.08" cy="149.3735" fill="none" rx="3" ry="3" style="stroke:#038048;stroke-width:1;"/></g><text fill="#000000" font-family="sans-serif" font-size="14" lengthAdjust="spacing" textLength="192.8632" x="267.08" y="153.3055">String channel_increment_dir</text><g data-visibility-modifier="PUBLIC_FIELD"><ellipse cx="258.08" cy="168.4415" fill="none" rx="3" ry="3" style="stroke:#038048;stroke-width:1;"/></g><text fill="#000000" font-family="sans-serif" font-size="14" lengthAdjust="spacing" textLength="96.8796" x="267.08" y="172.3734">float threshold</text><g data-visibility-modifier="PUBLIC_FIELD"><ellipse cx="258.08" cy="187.5094" fill="none" rx="3" ry="3" style="stroke:#038048;stroke-width:1;"/></g><text fill="#000000" font-family="sans-serif" font-size="14" lengthAdjust="spacing" textLength="117.1516" x="267.08" y="191.4414">float drift_velocity</text><g data-visibility-modifier="PUBLIC_FIELD"><ellipse cx="258.08" cy="206.5773" fill="none" rx="3" ry="3" style="stroke:#038048;stroke-width:1;"/></g><text fill="#000000" font-family="sans-serif" font-size="14" lengthAdjust="spacing" textLength="169.3433" x="267.08" y="210.5093">float electron_lifetime_ms</text><g data-visibility-modifier="PUBLIC_FIELD"><ellipse cx="258.08" cy="225.6452" fill="none" rx="3" ry="3" style="stroke:#038048;stroke-width:1;"/></g><text fill="#000000" font-family="sans-serif" font-size="14" lengthAdjust="spacing" textLength="158.6054" x="267.08" y="229.5772">float channel_resolution</text><g data-visibility-modifier="PUBLIC_FIELD"><ellipse cx="258.08" cy="244.7131" fill="none" rx="3" ry="3" style="stroke:#038048;stroke-width:1;"/></g><text fill="#000000" font-family="sans-serif" font-size="14" lengthAdjust="spacing" textLength="103.1516" x="267.08" y="248.6451">int signal_width</text><g data-visibility-modifier="PUBLIC_FIELD"><ellipse cx="258.08" cy="263.781" fill="none" rx="3" ry="3" style="stroke:#038048;stroke-width:1;"/></g><text fill="#000000" font-family="sans-serif" font-size="14" lengthAdjust="spacing" textLength="164.3593" x="267.08" y="267.713">float collection_efficiency</text><line style="stroke:#181818;stroke-width:0.5;" x1="248.08" x2="679.5345" y1="275.815" y2="275.815"/><g data-visibility-modifier="PUBLIC_METHOD"><ellipse cx="258.08" cy="290.849" fill="#84BE84" rx="3" ry="3" style="stroke:#038048;stroke-width:1;"/></g><text fill="#000000" font-family="sans-serif" font-size="14" lengthAdjust="spacing" textLength="407.4545" x="267.08" y="294.7809">Event process_emission(emission: Emission, position: Vector3)</text></g><!--class Event--><g class="entity" data-qualified-name="Event" data-source-line="36" id="ent0004"><rect fill="#F1F1F1" height="105.2038" rx="2.5" ry="2.5" style="stroke:#181818;stroke-width:0.5;" width="165.5795" x="381.02" y="402.89"/><ellipse cx="441.3108" cy="418.89" fill="#F1F1F1" rx="11" ry="11" style="stroke:#181818;stroke-width:1;"/><path d="M440.9827,425.5619 Q440.0608,425.5619 439.1702,425.39 Q438.2796,425.2025 437.4983,424.8275 L437.4983,422.5775 Q438.4514,423.0619 439.3264,423.2963 Q440.2171,423.515 441.0608,423.515 Q441.9358,423.515 442.4983,423.2181 Q443.0608,422.9213 443.0608,422.14 Q443.0608,421.5931 442.7639,421.2963 Q442.4671,420.9838 441.9046,420.7025 Q441.3421,420.4213 440.5608,420.015 Q439.7796,419.5931 439.1233,419.1088 Q438.4827,418.6088 438.1077,417.9369 Q437.7327,417.265 437.7327,416.3119 Q437.7327,414.6869 438.8264,413.89 Q439.9358,413.0775 441.7171,413.0775 Q442.4358,413.0775 443.4202,413.2494 Q444.4046,413.4056 445.3577,413.8588 L444.5764,415.7806 Q443.7327,415.4213 443.0452,415.2806 Q442.3733,415.1244 441.8577,415.1244 Q441.0139,415.1244 440.6233,415.4681 Q440.2483,415.7963 440.2483,416.4369 Q440.2483,416.9213 440.4827,417.2338 Q440.7327,417.5306 441.2014,417.7806 Q441.6858,418.0306 442.4202,418.4056 Q443.4202,418.89 444.1233,419.3588 Q444.8264,419.8275 445.2014,420.4525 Q445.5764,421.0619 445.5764,421.9994 Q445.5764,423.1869 444.9983,423.9838 Q444.4358,424.765 443.3889,425.1713 Q442.3577,425.5619 440.9827,425.5619 Z " fill="#000000"/><text fill="#000000" font-family="sans-serif" font-size="14" lengthAdjust="spacing" textLength="36.4978" x="461.8108" y="424.322">Event</text><line style="stroke:#181818;stroke-width:0.5;" x1="382.02" x2="545.5995" y1="434.89" y2="434.89"/><g data-visibility-modifier="PUBLIC_FIELD"><ellipse cx="392.02" cy="449.924" fill="none" rx="3" ry="3" style="stroke:#038048;stroke-width:1;"/></g><text fill="#000000" font-family="sans-serif" font-size="14" lengthAdjust="spacing" textLength="112.1396" x="401.02" y="453.8559">int[1..*] channels</text><g data-visibility-modifier="PUBLIC_FIELD"><ellipse cx="392.02" cy="468.9919" fill="none" rx="3" ry="3" style="stroke:#038048;stroke-width:1;"/></g><text fill="#000000" font-family="sans-serif" font-size="14" lengthAdjust="spacing" textLength="139.5795" x="401.02" y="472.9239">float[1..*] amplitudes</text><g data-visibility-modifier="PUBLIC_FIELD"><ellipse cx="392.02" cy="488.0598" fill="none" rx="3" ry="3" style="stroke:#038048;stroke-width:1;"/></g><text fill="#000000" font-family="sans-serif" font-size="14" lengthAdjust="spacing" textLength="121.0155" x="401.02" y="491.9918">Emission emission</text><line style="stroke:#181818;stroke-width:0.5;" x1="382.02" x2="545.5995" y1="500.0938" y2="500.0938"/></g><!--reverse link Vector3 to Detector--><!--link Detector to Geometry--><g class="link" data-entity-1="ent0003" data-entity-2="ent0002" data-link-type="dependency" data-source-line="43" id="lnk6"><path codeLine="43" d="M681.02,155.09 C732.54,155.09 780.4,155.09 824.87,155.09" fill="none" id="Detector-to-Geometry" style="stroke:#181818;stroke-width:1;"/><polygon fill="#181818" points="829.87,155.09,820.87,151.09,824.87,155.09,820.87,159.09,829.87,155.09" style="stroke:#181818;stroke-width:1;stroke-linejoin:miter;stroke-miterlimit:10;"/></g><!--link Detector to Event--><g class="link" data-entity-1="ent0003" data-entity-2="ent0004" data-link-type="dependency" data-source-line="44" id="lnk7"><path codeLine="44" d="M463.81,303.02 C463.81,338.72 463.81,369.6 463.81,397.57" fill="none" id="Detector-to-Event" style="stroke:#181818;stroke-width:1;"/><polygon fill="#181818" points="463.81,402.57,467.81,393.57,463.81,397.57,459.81,393.57,463.81,402.57" style="stroke:#181818;stroke-width:1;stroke-linejoin:miter;stroke-miterlimit:10;"/></g><?plantuml-src RLBBRXin3BphAtXC7muS5Bq4WKy9-W49UWa2GP6uNY8IkP3ejAwHVw_sxG2-KJFKSFWeRyIToov194OzTWYIjHLZoiAm12pOmStFxHcQ7RyDw7PhZ4e7Al0ggf8WK4Ql95nLD1-ymk_wblm3xkxkdRgdMcQtWvE1Rz14SGf_r_2uXl_CXp76lLOHLqLyTAN0BvI4ce_ZzrbOCks9U-GqvtzKEnA1YYKk5F2gaqAzgzlvrvTUVrIzHnsmKNMfiP-27YHMu4EoldNC6ClYy_dc-lhh2qou_KD1svLTyD8vJxo_GAZBQcTtFV-ekMOk2SG-Oq9MMoUx_jSsOsabXXKAcHgrxnZ5avvD4cFjBWlRI0qg9RJfWiCg9_4mc-ZxBRHdDxLqbYynZWkss3Ja2TaFnHxUgqdeidWinMAYKchIrHpSmiCKVOVBovZEPTGvcS74v_4MytdgBdMHz50lj1ApFCmLUytbzZRFBOM0_B9isonht-JDRbdx6HmgFBZv3m00?></g></svg>