<svg xmlns="http://www.w3.org/2000/svg" xmlns:xlink="http://www.w3.org/1999/xlink" contentStyleType="text/css" data-diagram-type="CLASS" height="345px" preserveAspectRatio="none" style="width:680px;height:345px;background:#FFFFFF;" version="1.1" viewBox="0 0 680 345" width="680px" zoomAndPan="magnify"><?plantuml $version$?><defs/><g><!--class Vector3--><g class="entity" data-qualified-name="Vector3" data-source-line="8" id="ent0001"><rect fill="#F1F1F1" height="118.6158" rx="2.5" ry="2.5" style="stroke:#181818;stroke-width:0.5;" width="89.6204" x="576.06" y="7"/><ellipse cx="591.06" cy="29.706" fill="#F1F1F1" rx="11" ry="11" style="stroke:#181818;stroke-width:1;"/><path d="M590.7319,36.3779 Q589.81,36.3779 588.9194,36.206 Q588.0288,36.0185 587.2475,35.6435 L587.2475,33.3935 Q588.2006,33.8779 589.0756,34.1123 Q589.9663,34.331 590.81,34.331 Q591.685,34.331 592.2475,34.0341 Q592.81,33.7373 592.81,32.956 Q592.81,32.4091 592.5131,32.1123 Q592.2163,31.7998 591.6538,31.5185 Q591.0913,31.2373 590.31,30.831 Q589.5288,30.4091 588.8725,29.9248 Q588.2319,29.4248 587.8569,28.7529 Q587.4819,28.081 587.4819,27.1279 Q587.4819,25.5029 588.5756,24.706 Q589.685,23.8935 591.4663,23.8935 Q592.185,23.8935 593.1694,24.0654 Q594.1538,24.2216 595.1069,24.6748 L594.3256,26.5966 Q593.4819,26.2373 592.7944,26.0966 Q592.1225,25.9404 591.6069,25.9404 Q590.7631,25.9404 590.3725,26.2841 Q589.9975,26.6123 589.9975,27.2529 Q589.9975,27.7373 590.2319,28.0498 Q590.4819,28.3466 590.9506,28.5966 Q591.435,28.8466 592.1694,29.2216 Q593.1694,29.706 593.8725,30.1748 Q594.5756,30.6435 594.9506,31.2685 Q595.3256,31.8779 595.3256,32.8154 Q595.3256,34.0029 594.7475,34.7998 Q594.185,35.581 593.1381,35.9873 Q592.1069,36.3779 590.7319,36.3779 Z " fill="#000000"/><text fill="#000000" font-family="sans-serif" font-size="12" font-style="italic" lengthAdjust="spacing" textLength="61.6204" x="603.06" y="24.8281">&#171;DataType&#187;</text><text fill="#000000" font-family="sans-serif" font-size="14" lengthAdjust="spacing" textLength="50.3298" x="608.7053" y="43.31">Vector3</text><line style="stroke:#181818;stroke-width:0.5;" x1="577.06" x2="664.6804" y1="52.412" y2="52.412"/><g data-visibility-modifier="PUBLIC_FIELD"><ellipse cx="587.06" cy="67.446" fill="none" rx="3" ry="3" style="stroke:#038048;stroke-width:1;"/></g><text fill="#000000" font-family="sans-serif" font-size="14" lengthAdjust="spacing" textLength="40.8519" x="596.06" y="71.378">float x</text><g data-visibility-modifier="PUBLIC_FIELD"><ellipse cx="587.06" cy="86.5139" fill="none" rx="3" ry="3" style="stroke:#038048;stroke-width:1;"/></g><text fill="#000000" font-family="sans-serif" font-size="14" lengthAdjust="spacing" textLength="40.5858" x="596.06" y="90.4459">float y</text><g data-visibility-modifier="PUBLIC_FIELD"><ellipse cx="587.06" cy="105.5818" fill="none" rx="3" ry="3" style="stroke:#038048;stroke-width:1;"/></g><text fill="#000000" font-family="sans-serif" font-size="14" lengthAdjust="spacing" textLength="40.0258" x="596.06" y="109.5138">float z</text><line style="stroke:#181818;stroke-width:0.5;" x1="577.06" x2="664.6804" y1="117.6158" y2="117.6158"/></g><!--class Geometry--><g class="entity" data-qualified-name="Geometry" data-source-line="14" id="ent0002"><rect fill="#F1F1F1" height="86.1358" rx="2.5" ry="2.5" style="stroke:#181818;stroke-width:0.5;" width="220.8933" x="205.42" y="23.24"/><ellipse cx="281.4397" cy="39.24" fill="#A9DCDF" rx="11" ry="11" style="stroke:#181818;stroke-width:1;"/><path d="M276.6116,44.99 L279.9554,32.8025 L283.096,32.8025 L286.471,44.99 L284.0022,44.99 L283.2679,41.9744 L279.7522,41.9744 L279.0022,44.99 L276.6116,44.99 Z M281.0179,36.9431 L280.2679,39.9431 L282.7835,39.9431 L282.0647,36.9431 Q281.9241,36.365 281.7991,35.8181 Q281.6741,35.2556 281.5335,34.6775 Q281.4241,35.2556 281.2835,35.8181 Q281.1429,36.365 281.0179,36.9431 Z " fill="#000000"/><text fill="#000000" font-family="sans-serif" font-size="14" font-style="italic" lengthAdjust="spacing" textLength="60.3538" x="301.9397" y="44.672">Geometry</text><line style="stroke:#181818;stroke-width:0.5;" x1="206.42" x2="425.3133" y1="55.24" y2="55.24"/><g data-visibility-modifier="PUBLIC_FIELD"><ellipse cx="216.42" cy="70.274" fill="none" rx="3" ry="3" style="stroke:#038048;stroke-width:1;"/></g><text fill="#000000" font-family="sans-serif" font-size="14" lengthAdjust="spacing" textLength="92.7076" x="225.42" y="74.2059">Vector3 origin</text><line style="stroke:#181818;stroke-width:0.5;" x1="206.42" x2="425.3133" y1="82.3079" y2="82.3079"/><g data-visibility-modifier="PUBLIC_METHOD"><ellipse cx="216.42" cy="97.3419" fill="#84BE84" rx="3" ry="3" style="stroke:#038048;stroke-width:1;"/></g><text fill="#000000" font-family="sans-serif" font-size="14" font-style="italic" lengthAdjust="spacing" textLength="194.8933" x="225.42" y="101.2739">bool is_inside(position: Vector3)</text></g><!--class RectangularPrism--><g class="entity" data-qualified-name="RectangularPrism" data-source-line="20" id="ent0003"><rect fill="#F1F1F1" height="86.1358" rx="2.5" ry="2.5" style="stroke:#181818;stroke-width:0.5;" width="233.7312" x="7" y="235.15"/><ellipse cx="61.0888" cy="251.15" fill="#ADD1B2" rx="11" ry="11" style="stroke:#181818;stroke-width:1;"/><path d="M60.5576,258.0719 Q58.8076,258.0719 57.6669,257.3375 Q56.5419,256.5875 55.9794,255.2437 Q55.4326,253.8844 55.4326,252.0875 Q55.4326,250.0562 56.0888,248.6031 Q56.7451,247.15 58.0263,246.3687 Q59.3076,245.5875 61.1826,245.5875 Q62.0732,245.5875 62.7451,245.775 Q63.4169,245.9469 64.1044,246.2906 L63.2919,248.3062 Q62.6669,247.9937 62.1201,247.8687 Q61.5888,247.7437 61.1044,247.7437 Q59.9326,247.7437 59.2294,248.275 Q58.5263,248.8062 58.2294,249.7594 Q57.9326,250.7125 57.9326,251.9781 Q57.9326,253.9937 58.6513,254.9625 Q59.3701,255.9156 60.9638,255.9156 Q61.5576,255.9156 62.1826,255.7594 Q62.8076,255.6031 63.6357,255.2281 L63.6357,257.4469 Q62.9013,257.7594 62.1044,257.9156 Q61.3232,258.0719 60.5576,258.0719 Z " fill="#000000"/><text fill="#000000" font-family="sans-serif" font-size="14" lengthAdjust="spacing" textLength="117.0536" x="81.5888" y="256.582">RectangularPrism</text><line style="stroke:#181818;stroke-width:0.5;" x1="8" x2="239.7312" y1="267.15" y2="267.15"/><g data-visibility-modifier="PUBLIC_FIELD"><ellipse cx="18" cy="282.184" fill="none" rx="3" ry="3" style="stroke:#038048;stroke-width:1;"/></g><text fill="#000000" font-family="sans-serif" font-size="14" lengthAdjust="spacing" textLength="78.7637" x="27" y="286.1159">Vector3 size</text><line style="stroke:#181818;stroke-width:0.5;" x1="8" x2="239.7312" y1="294.2179" y2="294.2179"/><g data-visibility-modifier="PUBLIC_METHOD"><ellipse cx="18" cy="309.2519" fill="#84BE84" rx="3" ry="3" style="stroke:#038048;stroke-width:1;"/></g><text fill="#000000" font-family="sans-serif" font-size="14" lengthAdjust="spacing" textLength="207.7312" x="27" y="313.1839">bool is_inside(position: Vector3)</text></g><!--class Cylinder--><g class="entity" data-qualified-name="Cylinder" data-source-line="25" id="ent0004"><rect fill="#F1F1F1" height="105.2038" rx="2.5" ry="2.5" style="stroke:#181818;stroke-width:0.5;" width="233.7312" x="391" y="225.62"/><ellipse cx="476.5397" cy="241.62" fill="#ADD1B2" rx="11" ry="11" style="stroke:#181818;stroke-width:1;"/><path d="M476.0085,248.5419 Q474.2585,248.5419 473.1178,247.8075 Q471.9928,247.0575 471.4303,245.7138 Q470.8835,244.3544 470.8835,242.5575 Q470.8835,240.5263 471.5397,239.0731 Q472.196,237.62 473.4772,236.8388 Q474.7585,236.0575 476.6335,236.0575 Q477.5241,236.0575 478.196,236.245 Q478.8678,236.4169 479.5553,236.7606 L478.7428,238.7763 Q478.1178,238.4638 477.571,238.3388 Q477.0397,238.2138 476.5553,238.2138 Q475.3835,238.2138 474.6803,238.745 Q473.9772,239.2763 473.6803,240.2294 Q473.3835,241.1825 473.3835,242.4481 Q473.3835,244.4638 474.1022,245.4325 Q474.821,246.3856 476.4147,246.3856 Q477.0085,246.3856 477.6335,246.2294 Q478.2585,246.0731 479.0866,245.6981 L479.0866,247.9169 Q478.3522,248.2294 477.5553,248.3856 Q476.7741,248.5419 476.0085,248.5419 Z " fill="#000000"/><text fill="#000000" font-family="sans-serif" font-size="14" lengthAdjust="spacing" textLength="54.1518" x="497.0397" y="247.052">Cylinder</text><line style="stroke:#181818;stroke-width:0.5;" x1="392" x2="623.7312" y1="257.62" y2="257.62"/><g data-visibility-modifier="PUBLIC_FIELD"><ellipse cx="402" cy="272.654" fill="none" rx="3" ry="3" style="stroke:#038048;stroke-width:1;"/></g><text fill="#000000" font-family="sans-serif" font-size="14" lengthAdjust="spacing" textLength="78.4137" x="411" y="276.5859">radius: float</text><g data-visibility-modifier="PUBLIC_FIELD"><ellipse cx="402" cy="291.7219" fill="none" rx="3" ry="3" style="stroke:#038048;stroke-width:1;"/></g><text fill="#000000" font-family="sans-serif" font-size="14" lengthAdjust="spacing" textLength="79.6737" x="411" y="295.6539">height: float</text><line style="stroke:#181818;stroke-width:0.5;" x1="392" x2="623.7312" y1="303.7558" y2="303.7558"/><g data-visibility-modifier="PUBLIC_METHOD"><ellipse cx="402" cy="318.7898" fill="#84BE84" rx="3" ry="3" style="stroke:#038048;stroke-width:1;"/></g><text fill="#000000" font-family="sans-serif" font-size="14" lengthAdjust="spacing" textLength="207.7312" x="411" y="322.7218">bool is_inside(position: Vector3)</text></g><!--reverse link Geometry to Cylinder--><g class="link" data-entity-1="ent0002" data-entity-2="ent0004" data-link-type="extension" data-source-line="32" id="lnk6"><path codeLine="32" d="M408.66,127.7 C408.66,161.24 408.66,189.82 408.66,225.5" fill="none" id="Geometry-backto-Cylinder" style="stroke:#181818;stroke-width:1;"/><polygon fill="none" points="408.66,109.7,402.66,127.7,414.66,127.7,408.66,109.7" style="stroke:#181818;stroke-width:1;stroke-linejoin:miter;stroke-miterlimit:10;"/></g><!--reverse link Geometry to RectangularPrism--><g class="link" data-entity-1="ent0002" data-entity-2="ent0003" data-link-type="extension" data-source-line="33" id="lnk8"><path codeLine="33" d="M223.08,127.7 C223.08,164.27 223.08,198.33 223.08,234.88" fill="none" id="Geometry-backto-RectangularPrism" style="stroke:#181818;stroke-width:1;"/><polygon fill="none" points="223.08,109.7,217.08,127.7,229.08,127.7,223.08,109.7" style="stroke:#181818;stroke-width:1;stroke-linejoin:miter;stroke-miterlimit:10;"/></g><?plantuml-src ZP11IyDG3CVlxrFagCXW8bx6w4LXLn7nAbaRsx3svP6NWjtST_UrjLtHWzwIVvBVFqayi0-es43DdgmB1A9MYNDnhdWfA5A0s_lrGbNqXq5Thvqp2M02Up6J1WfMoet59uffcnkyfbpq3hRRHpHyIJPP1YS7D_1U2nfyNCBk4XxTsJdS9mOcHbvZZB0ZQSYq6wSdhYYNx7lbDFMVqpPI0yStzf4BkWeIkLzgCqrTztYJagmYxNcZmtEgeY_R6lL9EJPzPM4L-KY3y3SU4lyR-j2b_nQZJPfLBBYDc_7EGQc8oygMoh_uoM56hzgm-ipc3xbVX_ne-080?></g></svg>