<svg xmlns="http://www.w3.org/2000/svg" xmlns:xlink="http://www.w3.org/1999/xlink" contentStyleType="text/css" data-diagram-type="CLASS" height="990px" preserveAspectRatio="none" style="width:1681px;height:990px;background:#FFFFFF;" version="1.1" viewBox="0 0 1681 990" width="1681px" zoomAndPan="magnify"><?plantuml $version$?><defs/><g><!--class Simulator--><g class="entity" data-qualified-name="Simulator" data-source-line="9" id="ent0001"><rect fill="#F1F1F1" height="124.2717" rx="2.5" ry="2.5" style="stroke:#181818;stroke-width:0.5;" width="241.8652" x="579.8" y="7"/><ellipse cx="664.5767" cy="23" fill="#ADD1B2" rx="11" ry="11" style="stroke:#181818;stroke-width:1;"/><path d="M664.0455,29.9219 Q662.2955,29.9219 661.1548,29.1875 Q660.0298,28.4375 659.4673,27.0938 Q658.9205,25.7344 658.9205,23.9375 Q658.9205,21.9063 659.5767,20.4531 Q660.233,19 661.5142,18.2188 Q662.7955,17.4375 664.6705,17.4375 Q665.5611,17.4375 666.233,17.625 Q666.9048,17.7969 667.5923,18.1406 L666.7798,20.1563 Q666.1548,19.8438 665.608,19.7188 Q665.0767,19.5938 664.5923,19.5938 Q663.4205,19.5938 662.7173,20.125 Q662.0142,20.6563 661.7173,21.6094 Q661.4205,22.5625 661.4205,23.8281 Q661.4205,25.8438 662.1392,26.8125 Q662.858,27.7656 664.4517,27.7656 Q665.0455,27.7656 665.6705,27.6094 Q666.2955,27.4531 667.1236,27.0781 L667.1236,29.2969 Q666.3892,29.6094 665.5923,29.7656 Q664.8111,29.9219 664.0455,29.9219 Z " fill="#000000"/><text fill="#000000" font-family="sans-serif" font-size="14" lengthAdjust="spacing" textLength="63.8118" x="685.0767" y="28.432">Simulator</text><line style="stroke:#181818;stroke-width:0.5;" x1="580.8" x2="820.6652" y1="39" y2="39"/><g data-visibility-modifier="PUBLIC_FIELD"><ellipse cx="590.8" cy="54.034" fill="none" rx="3" ry="3" style="stroke:#038048;stroke-width:1;"/></g><text fill="#000000" font-family="sans-serif" font-size="14" lengthAdjust="spacing" textLength="116.2136" x="599.8" y="57.9659">Detector detector</text><g data-visibility-modifier="PUBLIC_FIELD"><ellipse cx="590.8" cy="73.1019" fill="none" rx="3" ry="3" style="stroke:#038048;stroke-width:1;"/></g><text fill="#000000" font-family="sans-serif" font-size="14" lengthAdjust="spacing" textLength="132.2155" x="599.8" y="77.0339">Source[1..*] sources</text><line style="stroke:#181818;stroke-width:0.5;" x1="580.8" x2="820.6652" y1="85.1358" y2="85.1358"/><g data-visibility-modifier="PUBLIC_METHOD"><ellipse cx="590.8" cy="100.1698" fill="#84BE84" rx="3" ry="3" style="stroke:#038048;stroke-width:1;"/></g><text fill="#000000" font-family="sans-serif" font-size="14" lengthAdjust="spacing" textLength="133.4474" x="599.8" y="104.1018">Event collect_event()</text><g data-visibility-modifier="PRIVATE_METHOD"><rect fill="#F24D5C" height="6" style="stroke:#C82930;stroke-width:1;" width="6" x="587.8" y="116.2377"/></g><text fill="#000000" font-family="sans-serif" font-size="14" lengthAdjust="spacing" textLength="215.8652" x="599.8" y="123.1697">Emission get_random_emission()</text></g><!--class Vector2--><g class="entity" data-qualified-name="Vector2" data-source-line="17" id="ent0002"><rect fill="#F1F1F1" height="99.5479" rx="2.5" ry="2.5" style="stroke:#181818;stroke-width:0.5;" width="89.6204" x="1214.92" y="19.36"/><ellipse cx="1229.92" cy="42.066" fill="#F1F1F1" rx="11" ry="11" style="stroke:#181818;stroke-width:1;"/><path d="M1229.5919,48.7379 Q1228.67,48.7379 1227.7794,48.566 Q1226.8888,48.3785 1226.1075,48.0035 L1226.1075,45.7535 Q1227.0606,46.2379 1227.9356,46.4723 Q1228.8263,46.691 1229.67,46.691 Q1230.545,46.691 1231.1075,46.3941 Q1231.67,46.0973 1231.67,45.316 Q1231.67,44.7691 1231.3731,44.4723 Q1231.0763,44.1598 1230.5138,43.8785 Q1229.9513,43.5973 1229.17,43.191 Q1228.3888,42.7691 1227.7325,42.2848 Q1227.0919,41.7848 1226.7169,41.1129 Q1226.3419,40.441 1226.3419,39.4879 Q1226.3419,37.8629 1227.4356,37.066 Q1228.545,36.2535 1230.3263,36.2535 Q1231.045,36.2535 1232.0294,36.4254 Q1233.0138,36.5816 1233.9669,37.0348 L1233.1856,38.9566 Q1232.3419,38.5973 1231.6544,38.4566 Q1230.9825,38.3004 1230.4669,38.3004 Q1229.6231,38.3004 1229.2325,38.6441 Q1228.8575,38.9723 1228.8575,39.6129 Q1228.8575,40.0973 1229.0919,40.4098 Q1229.3419,40.7066 1229.8106,40.9566 Q1230.295,41.2066 1231.0294,41.5816 Q1232.0294,42.066 1232.7325,42.5348 Q1233.4356,43.0035 1233.8106,43.6285 Q1234.1856,44.2379 1234.1856,45.1754 Q1234.1856,46.3629 1233.6075,47.1598 Q1233.045,47.941 1231.9981,48.3473 Q1230.9669,48.7379 1229.5919,48.7379 Z " fill="#000000"/><text fill="#000000" font-family="sans-serif" font-size="12" font-style="italic" lengthAdjust="spacing" textLength="61.6204" x="1241.92" y="37.1881">&#171;DataType&#187;</text><text fill="#000000" font-family="sans-serif" font-size="14" lengthAdjust="spacing" textLength="50.3298" x="1247.5653" y="55.67">Vector2</text><line style="stroke:#181818;stroke-width:0.5;" x1="1215.92" x2="1303.5404" y1="64.772" y2="64.772"/><g data-visibility-modifier="PUBLIC_FIELD"><ellipse cx="1225.92" cy="79.806" fill="none" rx="3" ry="3" style="stroke:#038048;stroke-width:1;"/></g><text fill="#000000" font-family="sans-serif" font-size="14" lengthAdjust="spacing" textLength="40.8519" x="1234.92" y="83.738">float x</text><g data-visibility-modifier="PUBLIC_FIELD"><ellipse cx="1225.92" cy="98.8739" fill="none" rx="3" ry="3" style="stroke:#038048;stroke-width:1;"/></g><text fill="#000000" font-family="sans-serif" font-size="14" lengthAdjust="spacing" textLength="40.5858" x="1234.92" y="102.8059">float y</text><line style="stroke:#181818;stroke-width:0.5;" x1="1215.92" x2="1303.5404" y1="110.9079" y2="110.9079"/></g><!--class Vector3--><g class="entity" data-qualified-name="Vector3" data-source-line="22" id="ent0003"><rect fill="#F1F1F1" height="118.6158" rx="2.5" ry="2.5" style="stroke:#181818;stroke-width:0.5;" width="89.6204" x="1454.92" y="9.83"/><ellipse cx="1469.92" cy="32.536" fill="#F1F1F1" rx="11" ry="11" style="stroke:#181818;stroke-width:1;"/><path d="M1469.5919,39.2079 Q1468.67,39.2079 1467.7794,39.036 Q1466.8888,38.8485 1466.1075,38.4735 L1466.1075,36.2235 Q1467.0606,36.7079 1467.9356,36.9423 Q1468.8263,37.161 1469.67,37.161 Q1470.545,37.161 1471.1075,36.8641 Q1471.67,36.5673 1471.67,35.786 Q1471.67,35.2391 1471.3731,34.9423 Q1471.0763,34.6298 1470.5138,34.3485 Q1469.9513,34.0673 1469.17,33.661 Q1468.3888,33.2391 1467.7325,32.7548 Q1467.0919,32.2548 1466.7169,31.5829 Q1466.3419,30.911 1466.3419,29.9579 Q1466.3419,28.3329 1467.4356,27.536 Q1468.545,26.7235 1470.3263,26.7235 Q1471.045,26.7235 1472.0294,26.8954 Q1473.0138,27.0516 1473.9669,27.5048 L1473.1856,29.4266 Q1472.3419,29.0673 1471.6544,28.9266 Q1470.9825,28.7704 1470.4669,28.7704 Q1469.6231,28.7704 1469.2325,29.1141 Q1468.8575,29.4423 1468.8575,30.0829 Q1468.8575,30.5673 1469.0919,30.8798 Q1469.3419,31.1766 1469.8106,31.4266 Q1470.295,31.6766 1471.0294,32.0516 Q1472.0294,32.536 1472.7325,33.0048 Q1473.4356,33.4735 1473.8106,34.0985 Q1474.1856,34.7079 1474.1856,35.6454 Q1474.1856,36.8329 1473.6075,37.6298 Q1473.045,38.411 1471.9981,38.8173 Q1470.9669,39.2079 1469.5919,39.2079 Z " fill="#000000"/><text fill="#000000" font-family="sans-serif" font-size="12" font-style="italic" lengthAdjust="spacing" textLength="61.6204" x="1481.92" y="27.6581">&#171;DataType&#187;</text><text fill="#000000" font-family="sans-serif" font-size="14" lengthAdjust="spacing" textLength="50.3298" x="1487.5653" y="46.14">Vector3</text><line style="stroke:#181818;stroke-width:0.5;" x1="1455.92" x2="1543.5404" y1="55.242" y2="55.242"/><g data-visibility-modifier="PUBLIC_FIELD"><ellipse cx="1465.92" cy="70.276" fill="none" rx="3" ry="3" style="stroke:#038048;stroke-width:1;"/></g><text fill="#000000" font-family="sans-serif" font-size="14" lengthAdjust="spacing" textLength="40.8519" x="1474.92" y="74.208">float x</text><g data-visibility-modifier="PUBLIC_FIELD"><ellipse cx="1465.92" cy="89.3439" fill="none" rx="3" ry="3" style="stroke:#038048;stroke-width:1;"/></g><text fill="#000000" font-family="sans-serif" font-size="14" lengthAdjust="spacing" textLength="40.5858" x="1474.92" y="93.2759">float y</text><g data-visibility-modifier="PUBLIC_FIELD"><ellipse cx="1465.92" cy="108.4118" fill="none" rx="3" ry="3" style="stroke:#038048;stroke-width:1;"/></g><text fill="#000000" font-family="sans-serif" font-size="14" lengthAdjust="spacing" textLength="40.0258" x="1474.92" y="112.3438">float z</text><line style="stroke:#181818;stroke-width:0.5;" x1="1455.92" x2="1543.5404" y1="120.4458" y2="120.4458"/></g><!--class Detector--><g class="entity" data-qualified-name="Detector" data-source-line="32" id="ent0004"><rect fill="#F1F1F1" height="276.815" rx="2.5" ry="2.5" style="stroke:#181818;stroke-width:0.5;" width="433.4545" x="7" y="231.27"/><ellipse cx="190.9314" cy="247.27" fill="#ADD1B2" rx="11" ry="11" style="stroke:#181818;stroke-width:1;"/><path d="M190.4001,254.1919 Q188.6501,254.1919 187.5095,253.4575 Q186.3845,252.7075 185.822,251.3638 Q185.2751,250.0044 185.2751,248.2075 Q185.2751,246.1763 185.9314,244.7231 Q186.5876,243.27 187.8689,242.4888 Q189.1501,241.7075 191.0251,241.7075 Q191.9157,241.7075 192.5876,241.895 Q193.2595,242.0669 193.947,242.4106 L193.1345,244.4263 Q192.5095,244.1138 191.9626,243.9888 Q191.4314,243.8638 190.947,243.8638 Q189.7751,243.8638 189.072,244.395 Q188.3689,244.9263 188.072,245.8794 Q187.7751,246.8325 187.7751,248.0981 Q187.7751,250.1138 188.4939,251.0825 Q189.2126,252.0356 190.8064,252.0356 Q191.4001,252.0356 192.0251,251.8794 Q192.6501,251.7231 193.4782,251.3481 L193.4782,253.5669 Q192.7439,253.8794 191.947,254.0356 Q191.1657,254.1919 190.4001,254.1919 Z " fill="#000000"/><text fill="#000000" font-family="sans-serif" font-size="14" lengthAdjust="spacing" textLength="57.0918" x="211.4314" y="252.702">Detector</text><line style="stroke:#181818;stroke-width:0.5;" x1="8" x2="439.4545" y1="263.27" y2="263.27"/><g data-visibility-modifier="PUBLIC_FIELD"><ellipse cx="18" cy="278.304" fill="none" rx="3" ry="3" style="stroke:#038048;stroke-width:1;"/></g><text fill="#000000" font-family="sans-serif" font-size="14" lengthAdjust="spacing" textLength="133.0975" x="27" y="282.2359">Geometry geometry</text><g data-visibility-modifier="PUBLIC_FIELD"><ellipse cx="18" cy="297.3719" fill="none" rx="3" ry="3" style="stroke:#038048;stroke-width:1;"/></g><text fill="#000000" font-family="sans-serif" font-size="14" lengthAdjust="spacing" textLength="116.3115" x="27" y="301.3039">int num_channels</text><g data-visibility-modifier="PUBLIC_FIELD"><ellipse cx="18" cy="316.4398" fill="none" rx="3" ry="3" style="stroke:#038048;stroke-width:1;"/></g><text fill="#000000" font-family="sans-serif" font-size="14" lengthAdjust="spacing" textLength="167.7753" x="27" y="320.3718">float[1..*] channel_widths</text><g data-visibility-modifier="PUBLIC_FIELD"><ellipse cx="18" cy="335.5077" fill="none" rx="3" ry="3" style="stroke:#038048;stroke-width:1;"/></g><text fill="#000000" font-family="sans-serif" font-size="14" lengthAdjust="spacing" textLength="142.4634" x="27" y="339.4397">float channel_spacing</text><g data-visibility-modifier="PUBLIC_FIELD"><ellipse cx="18" cy="354.5756" fill="none" rx="3" ry="3" style="stroke:#038048;stroke-width:1;"/></g><text fill="#000000" font-family="sans-serif" font-size="14" lengthAdjust="spacing" textLength="181.5513" x="27" y="358.5076">float channel_start_position</text><g data-visibility-modifier="PUBLIC_FIELD"><ellipse cx="18" cy="373.6435" fill="none" rx="3" ry="3" style="stroke:#038048;stroke-width:1;"/></g><text fill="#000000" font-family="sans-serif" font-size="14" lengthAdjust="spacing" textLength="159.6974" x="27" y="377.5755">String channel_direction</text><g data-visibility-modifier="PUBLIC_FIELD"><ellipse cx="18" cy="392.7115" fill="none" rx="3" ry="3" style="stroke:#038048;stroke-width:1;"/></g><text fill="#000000" font-family="sans-serif" font-size="14" lengthAdjust="spacing" textLength="96.8796" x="27" y="396.6434">float threshold</text><g data-visibility-modifier="PUBLIC_FIELD"><ellipse cx="18" cy="411.7794" fill="none" rx="3" ry="3" style="stroke:#038048;stroke-width:1;"/></g><text fill="#000000" font-family="sans-serif" font-size="14" lengthAdjust="spacing" textLength="117.1516" x="27" y="415.7114">float drift_velocity</text><g data-visibility-modifier="PUBLIC_FIELD"><ellipse cx="18" cy="430.8473" fill="none" rx="3" ry="3" style="stroke:#038048;stroke-width:1;"/></g><text fill="#000000" font-family="sans-serif" font-size="14" lengthAdjust="spacing" textLength="169.3433" x="27" y="434.7793">float electron_lifetime_ms</text><g data-visibility-modifier="PUBLIC_FIELD"><ellipse cx="18" cy="449.9152" fill="none" rx="3" ry="3" style="stroke:#038048;stroke-width:1;"/></g><text fill="#000000" font-family="sans-serif" font-size="14" lengthAdjust="spacing" textLength="158.6054" x="27" y="453.8472">float channel_resolution</text><g data-visibility-modifier="PUBLIC_FIELD"><ellipse cx="18" cy="468.9831" fill="none" rx="3" ry="3" style="stroke:#038048;stroke-width:1;"/></g><text fill="#000000" font-family="sans-serif" font-size="14" lengthAdjust="spacing" textLength="103.1516" x="27" y="472.9151">int signal_width</text><line style="stroke:#181818;stroke-width:0.5;" x1="8" x2="439.4545" y1="481.0171" y2="481.0171"/><g data-visibility-modifier="PUBLIC_METHOD"><ellipse cx="18" cy="496.051" fill="#84BE84" rx="3" ry="3" style="stroke:#038048;stroke-width:1;"/></g><text fill="#000000" font-family="sans-serif" font-size="14" lengthAdjust="spacing" textLength="407.4545" x="27" y="499.983">Event process_emission(emission: Emission, position: Vector3)</text></g><!--class Source--><g class="entity" data-qualified-name="Source" data-source-line="33" id="ent0006"><rect fill="#F1F1F1" height="143.3396" rx="2.5" ry="2.5" style="stroke:#181818;stroke-width:0.5;" width="359.0588" x="961.2" y="298.01"/><ellipse cx="1113.8765" cy="314.01" fill="#ADD1B2" rx="11" ry="11" style="stroke:#181818;stroke-width:1;"/><path d="M1113.3452,320.9319 Q1111.5952,320.9319 1110.4546,320.1975 Q1109.3296,319.4475 1108.7671,318.1038 Q1108.2202,316.7444 1108.2202,314.9475 Q1108.2202,312.9163 1108.8765,311.4631 Q1109.5327,310.01 1110.814,309.2288 Q1112.0952,308.4475 1113.9702,308.4475 Q1114.8609,308.4475 1115.5327,308.635 Q1116.2046,308.8069 1116.8921,309.1506 L1116.0796,311.1663 Q1115.4546,310.8538 1114.9077,310.7288 Q1114.3765,310.6038 1113.8921,310.6038 Q1112.7202,310.6038 1112.0171,311.135 Q1111.314,311.6663 1111.0171,312.6194 Q1110.7202,313.5725 1110.7202,314.8381 Q1110.7202,316.8538 1111.439,317.8225 Q1112.1577,318.7756 1113.7515,318.7756 Q1114.3452,318.7756 1114.9702,318.6194 Q1115.5952,318.4631 1116.4234,318.0881 L1116.4234,320.3069 Q1115.689,320.6194 1114.8921,320.7756 Q1114.1109,320.9319 1113.3452,320.9319 Z " fill="#000000"/><text fill="#000000" font-family="sans-serif" font-size="14" lengthAdjust="spacing" textLength="45.2058" x="1134.3765" y="319.442">Source</text><line style="stroke:#181818;stroke-width:0.5;" x1="962.2" x2="1319.2588" y1="330.01" y2="330.01"/><g data-visibility-modifier="PUBLIC_FIELD"><ellipse cx="972.2" cy="345.044" fill="none" rx="3" ry="3" style="stroke:#038048;stroke-width:1;"/></g><text fill="#000000" font-family="sans-serif" font-size="14" lengthAdjust="spacing" textLength="133.0975" x="981.2" y="348.9759">Geometry geometry</text><g data-visibility-modifier="PUBLIC_FIELD"><ellipse cx="972.2" cy="364.1119" fill="none" rx="3" ry="3" style="stroke:#038048;stroke-width:1;"/></g><text fill="#000000" font-family="sans-serif" font-size="14" lengthAdjust="spacing" textLength="227.9751" x="981.2" y="368.0439">DecayBranch[1..*] decay_branches</text><line style="stroke:#181818;stroke-width:0.5;" x1="962.2" x2="1319.2588" y1="376.1458" y2="376.1458"/><g data-visibility-modifier="PRIVATE_METHOD"><rect fill="#F24D5C" height="6" style="stroke:#C82930;stroke-width:1;" width="6" x="969.2" y="388.1798"/></g><text fill="#000000" font-family="sans-serif" font-size="14" lengthAdjust="spacing" textLength="275.7849" x="981.2" y="395.1118">DecayBranch get_random_decay_branch()</text><g data-visibility-modifier="PUBLIC_METHOD"><ellipse cx="972.2" cy="410.2477" fill="#84BE84" rx="3" ry="3" style="stroke:#038048;stroke-width:1;"/></g><text fill="#000000" font-family="sans-serif" font-size="14" lengthAdjust="spacing" textLength="299.4449" x="981.2" y="414.1797">Emission[1..*] get_random_decay_emissions()</text><g data-visibility-modifier="PUBLIC_METHOD"><ellipse cx="972.2" cy="429.3156" fill="#84BE84" rx="3" ry="3" style="stroke:#038048;stroke-width:1;"/></g><text fill="#000000" font-family="sans-serif" font-size="14" lengthAdjust="spacing" textLength="333.0588" x="981.2" y="433.2476">Vector3 get_emission_position(emission: Emission)</text></g><!--class Geometry--><g class="entity" data-qualified-name="Geometry" data-source-line="35" id="ent0008"><rect fill="#F1F1F1" height="86.1358" rx="2.5" ry="2.5" style="stroke:#181818;stroke-width:0.5;" width="220.8933" x="590.28" y="326.61"/><ellipse cx="666.2997" cy="342.61" fill="#A9DCDF" rx="11" ry="11" style="stroke:#181818;stroke-width:1;"/><path d="M661.4716,348.36 L664.8154,336.1725 L667.956,336.1725 L671.331,348.36 L668.8622,348.36 L668.1279,345.3444 L664.6122,345.3444 L663.8622,348.36 L661.4716,348.36 Z M665.8779,340.3131 L665.1279,343.3131 L667.6435,343.3131 L666.9247,340.3131 Q666.7841,339.735 666.6591,339.1881 Q666.5341,338.6256 666.3935,338.0475 Q666.2841,338.6256 666.1435,339.1881 Q666.0029,339.735 665.8779,340.3131 Z " fill="#000000"/><text fill="#000000" font-family="sans-serif" font-size="14" font-style="italic" lengthAdjust="spacing" textLength="60.3538" x="686.7997" y="348.042">Geometry</text><line style="stroke:#181818;stroke-width:0.5;" x1="591.28" x2="810.1733" y1="358.61" y2="358.61"/><g data-visibility-modifier="PUBLIC_FIELD"><ellipse cx="601.28" cy="373.644" fill="none" rx="3" ry="3" style="stroke:#038048;stroke-width:1;"/></g><text fill="#000000" font-family="sans-serif" font-size="14" lengthAdjust="spacing" textLength="92.7076" x="610.28" y="377.5759">Vector3 origin</text><line style="stroke:#181818;stroke-width:0.5;" x1="591.28" x2="810.1733" y1="385.6779" y2="385.6779"/><g data-visibility-modifier="PUBLIC_METHOD"><ellipse cx="601.28" cy="400.7119" fill="#84BE84" rx="3" ry="3" style="stroke:#038048;stroke-width:1;"/></g><text fill="#000000" font-family="sans-serif" font-size="14" font-style="italic" lengthAdjust="spacing" textLength="194.8933" x="610.28" y="404.6439">bool is_inside(position: Vector3)</text></g><!--class RectangularPrism--><g class="entity" data-qualified-name="RectangularPrism" data-source-line="43" id="ent0010"><rect fill="#F1F1F1" height="86.1358" rx="2.5" ry="2.5" style="stroke:#181818;stroke-width:0.5;" width="233.7312" x="334.86" y="617.62"/><ellipse cx="388.9488" cy="633.62" fill="#ADD1B2" rx="11" ry="11" style="stroke:#181818;stroke-width:1;"/><path d="M388.4176,640.5419 Q386.6676,640.5419 385.5269,639.8075 Q384.4019,639.0575 383.8394,637.7138 Q383.2926,636.3544 383.2926,634.5575 Q383.2926,632.5263 383.9488,631.0731 Q384.6051,629.62 385.8863,628.8388 Q387.1676,628.0575 389.0426,628.0575 Q389.9332,628.0575 390.6051,628.245 Q391.2769,628.4169 391.9644,628.7606 L391.1519,630.7763 Q390.5269,630.4638 389.9801,630.3388 Q389.4488,630.2138 388.9644,630.2138 Q387.7926,630.2138 387.0894,630.745 Q386.3863,631.2763 386.0894,632.2294 Q385.7926,633.1825 385.7926,634.4481 Q385.7926,636.4638 386.5113,637.4325 Q387.2301,638.3856 388.8238,638.3856 Q389.4176,638.3856 390.0426,638.2294 Q390.6676,638.0731 391.4957,637.6981 L391.4957,639.9169 Q390.7613,640.2294 389.9644,640.3856 Q389.1832,640.5419 388.4176,640.5419 Z " fill="#000000"/><text fill="#000000" font-family="sans-serif" font-size="14" lengthAdjust="spacing" textLength="117.0536" x="409.4488" y="639.052">RectangularPrism</text><line style="stroke:#181818;stroke-width:0.5;" x1="335.86" x2="567.5912" y1="649.62" y2="649.62"/><g data-visibility-modifier="PUBLIC_FIELD"><ellipse cx="345.86" cy="664.654" fill="none" rx="3" ry="3" style="stroke:#038048;stroke-width:1;"/></g><text fill="#000000" font-family="sans-serif" font-size="14" lengthAdjust="spacing" textLength="78.7637" x="354.86" y="668.5859">Vector3 size</text><line style="stroke:#181818;stroke-width:0.5;" x1="335.86" x2="567.5912" y1="676.6879" y2="676.6879"/><g data-visibility-modifier="PUBLIC_METHOD"><ellipse cx="345.86" cy="691.7219" fill="#84BE84" rx="3" ry="3" style="stroke:#038048;stroke-width:1;"/></g><text fill="#000000" font-family="sans-serif" font-size="14" lengthAdjust="spacing" textLength="207.7312" x="354.86" y="695.6539">bool is_inside(position: Vector3)</text></g><!--class Cylinder--><g class="entity" data-qualified-name="Cylinder" data-source-line="48" id="ent0011"><rect fill="#F1F1F1" height="105.2038" rx="2.5" ry="2.5" style="stroke:#181818;stroke-width:0.5;" width="233.7312" x="718.86" y="608.09"/><ellipse cx="804.3997" cy="624.09" fill="#ADD1B2" rx="11" ry="11" style="stroke:#181818;stroke-width:1;"/><path d="M803.8685,631.0119 Q802.1185,631.0119 800.9778,630.2775 Q799.8528,629.5275 799.2903,628.1838 Q798.7435,626.8244 798.7435,625.0275 Q798.7435,622.9963 799.3997,621.5431 Q800.056,620.09 801.3372,619.3088 Q802.6185,618.5275 804.4935,618.5275 Q805.3841,618.5275 806.056,618.715 Q806.7278,618.8869 807.4153,619.2306 L806.6028,621.2463 Q805.9778,620.9338 805.431,620.8088 Q804.8997,620.6838 804.4153,620.6838 Q803.2435,620.6838 802.5403,621.215 Q801.8372,621.7463 801.5403,622.6994 Q801.2435,623.6525 801.2435,624.9181 Q801.2435,626.9338 801.9622,627.9025 Q802.681,628.8556 804.2747,628.8556 Q804.8685,628.8556 805.4935,628.6994 Q806.1185,628.5431 806.9466,628.1681 L806.9466,630.3869 Q806.2122,630.6994 805.4153,630.8556 Q804.6341,631.0119 803.8685,631.0119 Z " fill="#000000"/><text fill="#000000" font-family="sans-serif" font-size="14" lengthAdjust="spacing" textLength="54.1518" x="824.8997" y="629.522">Cylinder</text><line style="stroke:#181818;stroke-width:0.5;" x1="719.86" x2="951.5912" y1="640.09" y2="640.09"/><g data-visibility-modifier="PUBLIC_FIELD"><ellipse cx="729.86" cy="655.124" fill="none" rx="3" ry="3" style="stroke:#038048;stroke-width:1;"/></g><text fill="#000000" font-family="sans-serif" font-size="14" lengthAdjust="spacing" textLength="78.4137" x="738.86" y="659.0559">radius: float</text><g data-visibility-modifier="PUBLIC_FIELD"><ellipse cx="729.86" cy="674.1919" fill="none" rx="3" ry="3" style="stroke:#038048;stroke-width:1;"/></g><text fill="#000000" font-family="sans-serif" font-size="14" lengthAdjust="spacing" textLength="79.6737" x="738.86" y="678.1239">height: float</text><line style="stroke:#181818;stroke-width:0.5;" x1="719.86" x2="951.5912" y1="686.2258" y2="686.2258"/><g data-visibility-modifier="PUBLIC_METHOD"><ellipse cx="729.86" cy="701.2598" fill="#84BE84" rx="3" ry="3" style="stroke:#038048;stroke-width:1;"/></g><text fill="#000000" font-family="sans-serif" font-size="14" lengthAdjust="spacing" textLength="207.7312" x="738.86" y="705.1918">bool is_inside(position: Vector3)</text></g><!--class Event--><g class="entity" data-qualified-name="Event" data-source-line="74" id="ent0016"><rect fill="#F1F1F1" height="105.2038" rx="2.5" ry="2.5" style="stroke:#181818;stroke-width:0.5;" width="165.5795" x="18.94" y="608.09"/><ellipse cx="79.2308" cy="624.09" fill="#F1F1F1" rx="11" ry="11" style="stroke:#181818;stroke-width:1;"/><path d="M78.9027,630.7619 Q77.9808,630.7619 77.0902,630.59 Q76.1996,630.4025 75.4183,630.0275 L75.4183,627.7775 Q76.3714,628.2619 77.2464,628.4963 Q78.1371,628.715 78.9808,628.715 Q79.8558,628.715 80.4183,628.4181 Q80.9808,628.1213 80.9808,627.34 Q80.9808,626.7931 80.6839,626.4963 Q80.3871,626.1838 79.8246,625.9025 Q79.2621,625.6213 78.4808,625.215 Q77.6996,624.7931 77.0433,624.3088 Q76.4027,623.8088 76.0277,623.1369 Q75.6527,622.465 75.6527,621.5119 Q75.6527,619.8869 76.7464,619.09 Q77.8558,618.2775 79.6371,618.2775 Q80.3558,618.2775 81.3402,618.4494 Q82.3246,618.6056 83.2777,619.0588 L82.4964,620.9806 Q81.6527,620.6213 80.9652,620.4806 Q80.2933,620.3244 79.7777,620.3244 Q78.9339,620.3244 78.5433,620.6681 Q78.1683,620.9963 78.1683,621.6369 Q78.1683,622.1213 78.4027,622.4338 Q78.6527,622.7306 79.1214,622.9806 Q79.6058,623.2306 80.3402,623.6056 Q81.3402,624.09 82.0433,624.5588 Q82.7464,625.0275 83.1214,625.6525 Q83.4964,626.2619 83.4964,627.1994 Q83.4964,628.3869 82.9183,629.1838 Q82.3558,629.965 81.3089,630.3713 Q80.2777,630.7619 78.9027,630.7619 Z " fill="#000000"/><text fill="#000000" font-family="sans-serif" font-size="14" lengthAdjust="spacing" textLength="36.4978" x="99.7308" y="629.522">Event</text><line style="stroke:#181818;stroke-width:0.5;" x1="19.94" x2="183.5195" y1="640.09" y2="640.09"/><g data-visibility-modifier="PUBLIC_FIELD"><ellipse cx="29.94" cy="655.124" fill="none" rx="3" ry="3" style="stroke:#038048;stroke-width:1;"/></g><text fill="#000000" font-family="sans-serif" font-size="14" lengthAdjust="spacing" textLength="112.1396" x="38.94" y="659.0559">int[1..*] channels</text><g data-visibility-modifier="PUBLIC_FIELD"><ellipse cx="29.94" cy="674.1919" fill="none" rx="3" ry="3" style="stroke:#038048;stroke-width:1;"/></g><text fill="#000000" font-family="sans-serif" font-size="14" lengthAdjust="spacing" textLength="139.5795" x="38.94" y="678.1239">float[1..*] amplitudes</text><g data-visibility-modifier="PUBLIC_FIELD"><ellipse cx="29.94" cy="693.2598" fill="none" rx="3" ry="3" style="stroke:#038048;stroke-width:1;"/></g><text fill="#000000" font-family="sans-serif" font-size="14" lengthAdjust="spacing" textLength="121.0155" x="38.94" y="697.1918">Emission emission</text><line style="stroke:#181818;stroke-width:0.5;" x1="19.94" x2="183.5195" y1="705.2938" y2="705.2938"/></g><!--class Emission--><g class="entity" data-qualified-name="Emission" data-source-line="93" id="ent0020"><rect fill="#F1F1F1" height="162.4075" rx="2.5" ry="2.5" style="stroke:#181818;stroke-width:0.5;" width="531.8182" x="1118.82" y="813.29"/><ellipse cx="1351.1632" cy="829.29" fill="#ADD1B2" rx="11" ry="11" style="stroke:#181818;stroke-width:1;"/><path d="M1350.632,836.2119 Q1348.882,836.2119 1347.7413,835.4775 Q1346.6163,834.7275 1346.0538,833.3838 Q1345.507,832.0244 1345.507,830.2275 Q1345.507,828.1963 1346.1632,826.7431 Q1346.8195,825.29 1348.1007,824.5088 Q1349.382,823.7275 1351.257,823.7275 Q1352.1476,823.7275 1352.8195,823.915 Q1353.4913,824.0869 1354.1788,824.4306 L1353.3663,826.4463 Q1352.7413,826.1338 1352.1945,826.0088 Q1351.6632,825.8838 1351.1788,825.8838 Q1350.007,825.8838 1349.3038,826.415 Q1348.6007,826.9463 1348.3038,827.8994 Q1348.007,828.8525 1348.007,830.1181 Q1348.007,832.1338 1348.7257,833.1025 Q1349.4445,834.0556 1351.0382,834.0556 Q1351.632,834.0556 1352.257,833.8994 Q1352.882,833.7431 1353.7101,833.3681 L1353.7101,835.5869 Q1352.9757,835.8994 1352.1788,836.0556 Q1351.3976,836.2119 1350.632,836.2119 Z " fill="#000000"/><text fill="#000000" font-family="sans-serif" font-size="14" lengthAdjust="spacing" textLength="58.6318" x="1371.6632" y="834.722">Emission</text><line style="stroke:#181818;stroke-width:0.5;" x1="1119.82" x2="1649.6382" y1="845.29" y2="845.29"/><g data-visibility-modifier="PUBLIC_FIELD"><ellipse cx="1129.82" cy="860.324" fill="none" rx="3" ry="3" style="stroke:#038048;stroke-width:1;"/></g><text fill="#000000" font-family="sans-serif" font-size="14" lengthAdjust="spacing" textLength="113.7355" x="1138.82" y="864.2559">float energy_mev</text><g data-visibility-modifier="PUBLIC_FIELD"><ellipse cx="1129.82" cy="879.3919" fill="none" rx="3" ry="3" style="stroke:#038048;stroke-width:1;"/></g><text fill="#000000" font-family="sans-serif" font-size="14" lengthAdjust="spacing" textLength="166.1234" x="1138.82" y="883.3239">float interaction_distance</text><g data-visibility-modifier="PUBLIC_FIELD"><ellipse cx="1129.82" cy="898.4598" fill="none" rx="3" ry="3" style="stroke:#038048;stroke-width:1;"/></g><text fill="#000000" font-family="sans-serif" font-size="14" lengthAdjust="spacing" textLength="300.4528" x="1138.82" y="902.3918">Map&lt;String, float&gt; internal_conversion_coeffs</text><g data-visibility-modifier="PUBLIC_FIELD"><ellipse cx="1129.82" cy="917.5277" fill="none" rx="3" ry="3" style="stroke:#038048;stroke-width:1;"/></g><text fill="#000000" font-family="sans-serif" font-size="14" lengthAdjust="spacing" textLength="112.2656" x="1138.82" y="921.4597">bool is_corrected</text><g data-visibility-modifier="PUBLIC_FIELD"><ellipse cx="1129.82" cy="936.5956" fill="none" rx="3" ry="3" style="stroke:#038048;stroke-width:1;"/></g><text fill="#000000" font-family="sans-serif" font-size="14" lengthAdjust="spacing" textLength="71.7357" x="1138.82" y="940.5276">String type</text><line style="stroke:#181818;stroke-width:0.5;" x1="1119.82" x2="1649.6382" y1="948.6296" y2="948.6296"/><g data-visibility-modifier="PUBLIC_METHOD"><ellipse cx="1129.82" cy="963.6635" fill="#84BE84" rx="3" ry="3" style="stroke:#038048;stroke-width:1;"/></g><text fill="#000000" font-family="sans-serif" font-size="14" lengthAdjust="spacing" textLength="505.8182" x="1138.82" y="967.5955">Emission get_corrected_emission(shell_binding_energies: Map&lt;String, float&gt;)</text></g><!--class DecayBranch--><g class="entity" data-qualified-name="DecayBranch" data-source-line="102" id="ent0021"><rect fill="#F1F1F1" height="105.2038" rx="2.5" ry="2.5" style="stroke:#181818;stroke-width:0.5;" width="564.256" x="1102.6" y="608.09"/><ellipse cx="1337.1832" cy="624.09" fill="#ADD1B2" rx="11" ry="11" style="stroke:#181818;stroke-width:1;"/><path d="M1336.6519,631.0119 Q1334.9019,631.0119 1333.7613,630.2775 Q1332.6363,629.5275 1332.0738,628.1838 Q1331.5269,626.8244 1331.5269,625.0275 Q1331.5269,622.9963 1332.1832,621.5431 Q1332.8394,620.09 1334.1207,619.3088 Q1335.4019,618.5275 1337.2769,618.5275 Q1338.1675,618.5275 1338.8394,618.715 Q1339.5113,618.8869 1340.1988,619.2306 L1339.3863,621.2463 Q1338.7613,620.9338 1338.2144,620.8088 Q1337.6832,620.6838 1337.1988,620.6838 Q1336.0269,620.6838 1335.3238,621.215 Q1334.6207,621.7463 1334.3238,622.6994 Q1334.0269,623.6525 1334.0269,624.9181 Q1334.0269,626.9338 1334.7457,627.9025 Q1335.4644,628.8556 1337.0582,628.8556 Q1337.6519,628.8556 1338.2769,628.6994 Q1338.9019,628.5431 1339.73,628.1681 L1339.73,630.3869 Q1338.9957,630.6994 1338.1988,630.8556 Q1337.4175,631.0119 1336.6519,631.0119 Z " fill="#000000"/><text fill="#000000" font-family="sans-serif" font-size="14" lengthAdjust="spacing" textLength="86.5896" x="1357.6832" y="629.522">DecayBranch</text><line style="stroke:#181818;stroke-width:0.5;" x1="1103.6" x2="1665.856" y1="640.09" y2="640.09"/><g data-visibility-modifier="PUBLIC_FIELD"><ellipse cx="1113.6" cy="655.124" fill="none" rx="3" ry="3" style="stroke:#038048;stroke-width:1;"/></g><text fill="#000000" font-family="sans-serif" font-size="14" lengthAdjust="spacing" textLength="108.0236" x="1122.6" y="659.0559">float probabililty</text><g data-visibility-modifier="PUBLIC_FIELD"><ellipse cx="1113.6" cy="674.1919" fill="none" rx="3" ry="3" style="stroke:#038048;stroke-width:1;"/></g><text fill="#000000" font-family="sans-serif" font-size="14" lengthAdjust="spacing" textLength="160.1594" x="1122.6" y="678.1239">Emission[1..*] emissions</text><line style="stroke:#181818;stroke-width:0.5;" x1="1103.6" x2="1665.856" y1="686.2258" y2="686.2258"/><g data-visibility-modifier="PUBLIC_METHOD"><ellipse cx="1113.6" cy="701.2598" fill="#84BE84" rx="3" ry="3" style="stroke:#038048;stroke-width:1;"/></g><text fill="#000000" font-family="sans-serif" font-size="14" lengthAdjust="spacing" textLength="538.256" x="1122.6" y="705.1918">Emission[1..*] get_corrected_emission(shell_binding_energies: Map&lt;String, float&gt;)</text></g><!--reverse link Simulator to Detector--><g class="link" data-entity-1="ent0001" data-entity-2="ent0004" data-link-type="composition" data-source-line="32" id="lnk5"><path codeLine="32" d="M585.04,143.55 C585.04,200.79 585.04,264.7 585.04,264.7 C585.04,264.7 517.57,264.7 440.94,264.7" fill="none" id="Simulator-backto-Detector" style="stroke:#181818;stroke-width:1;"/><polygon fill="#181818" points="585.04,131.55,581.04,137.55,585.04,143.55,589.04,137.55,585.04,131.55" style="stroke:#181818;stroke-width:1;stroke-linejoin:miter;stroke-miterlimit:10;"/><text fill="#000000" font-family="sans-serif" font-size="13" lengthAdjust="spacing" textLength="7.436" x="448.1893" y="257.8851">1</text></g><!--reverse link Simulator to Source--><g class="link" data-entity-1="ent0001" data-entity-2="ent0006" data-link-type="composition" data-source-line="33" id="lnk7"><path codeLine="33" d="M816.42,143.54 C816.42,215.71 816.42,312.7 816.42,312.7 C816.42,312.7 886.2,312.7 961.03,312.7" fill="none" id="Simulator-backto-Source" style="stroke:#181818;stroke-width:1;"/><polygon fill="#181818" points="816.42,131.54,812.42,137.54,816.42,143.54,820.42,137.54,816.42,131.54" style="stroke:#181818;stroke-width:1;stroke-linejoin:miter;stroke-miterlimit:10;"/><text fill="#000000" font-family="sans-serif" font-size="13" lengthAdjust="spacing" textLength="21.567" x="931.4244" y="306.646">1..*</text></g><!--link Simulator to Geometry--><!--reverse link Geometry to Cylinder--><g class="link" data-entity-1="ent0008" data-entity-2="ent0011" data-link-type="extension" data-source-line="55" id="lnk13"><path codeLine="55" d="M765.02,431.25 C765.02,483.18 765.02,551.91 765.02,607.68" fill="none" id="Geometry-backto-Cylinder" style="stroke:#181818;stroke-width:1;"/><polygon fill="none" points="765.02,413.25,759.02,431.25,771.02,431.25,765.02,413.25" style="stroke:#181818;stroke-width:1;stroke-linejoin:miter;stroke-miterlimit:10;"/></g><!--reverse link Geometry to RectangularPrism--><g class="link" data-entity-1="ent0008" data-entity-2="ent0010" data-link-type="extension" data-source-line="56" id="lnk15"><path codeLine="56" d="M654.57,430.94 C654.57,512 654.57,660.7 654.57,660.7 C654.57,660.7 613.82,660.7 568.84,660.7" fill="none" id="Geometry-backto-RectangularPrism" style="stroke:#181818;stroke-width:1;"/><polygon fill="none" points="654.57,412.94,648.57,430.94,660.57,430.94,654.57,412.94" style="stroke:#181818;stroke-width:1;stroke-linejoin:miter;stroke-miterlimit:10;"/></g><!--link Detector to Geometry--><g class="link" data-entity-1="ent0004" data-entity-2="ent0008" data-link-type="dependency" data-source-line="81" id="lnk17"><path codeLine="81" d="M440.94,369.7 C492.46,369.7 540.32,369.7 584.79,369.7" fill="none" id="Detector-to-Geometry" style="stroke:#181818;stroke-width:1;"/><polygon fill="#181818" points="589.79,369.7,580.79,365.7,584.79,369.7,580.79,373.7,589.79,369.7" style="stroke:#181818;stroke-width:1;stroke-linejoin:miter;stroke-miterlimit:10;"/></g><!--reverse link Geometry to Source--><g class="link" data-entity-1="ent0008" data-entity-2="ent0006" data-link-type="dependency" data-source-line="82" id="lnk19"><path codeLine="82" d="M816.48,369.7 C861.79,369.7 910.39,369.7 961.04,369.7" fill="none" id="Geometry-backto-Source" style="stroke:#181818;stroke-width:1;"/><polygon fill="#181818" points="811.48,369.7,820.48,373.7,816.48,369.7,820.48,365.7,811.48,369.7" style="stroke:#181818;stroke-width:1;stroke-linejoin:miter;stroke-miterlimit:10;"/></g><!--reverse link Source to DecayBranch--><g class="link" data-entity-1="ent0006" data-entity-2="ent0021" data-link-type="composition" data-source-line="110" id="lnk22"><path codeLine="110" d="M1211.43,453.62 C1211.43,505.12 1211.43,561.31 1211.43,607.85" fill="none" id="Source-backto-DecayBranch" style="stroke:#181818;stroke-width:1;"/><polygon fill="#181818" points="1211.43,441.62,1207.43,447.62,1211.43,453.62,1215.43,447.62,1211.43,441.62" style="stroke:#181818;stroke-width:1;stroke-linejoin:miter;stroke-miterlimit:10;"/><text fill="#000000" font-family="sans-serif" font-size="13" lengthAdjust="spacing" textLength="7.436" x="1210.8558" y="463.2176">1</text><text fill="#000000" font-family="sans-serif" font-size="13" lengthAdjust="spacing" textLength="21.567" x="1164.6233" y="596.1705">1..*</text></g><!--reverse link DecayBranch to Emission--><g class="link" data-entity-1="ent0021" data-entity-2="ent0020" data-link-type="composition" data-source-line="111" id="lnk23"><path codeLine="111" d="M1384.73,725.74 C1384.73,755.12 1384.73,780.24 1384.73,813.2" fill="none" id="DecayBranch-backto-Emission" style="stroke:#181818;stroke-width:1;"/><polygon fill="#181818" points="1384.73,713.74,1380.73,719.74,1384.73,725.74,1388.73,719.74,1384.73,713.74" style="stroke:#181818;stroke-width:1;stroke-linejoin:miter;stroke-miterlimit:10;"/><text fill="#000000" font-family="sans-serif" font-size="13" lengthAdjust="spacing" textLength="7.436" x="1377.3303" y="735.1812">1</text><text fill="#000000" font-family="sans-serif" font-size="13" lengthAdjust="spacing" textLength="21.567" x="1362.7563" y="801.5722">1..*</text></g><!--link Detector to Event--><g class="link" data-entity-1="ent0004" data-entity-2="ent0016" data-link-type="dependency" data-source-line="113" id="lnk24"><path codeLine="113" d="M101.73,508.37 C101.73,543.79 101.73,574.76 101.73,602.84" fill="none" id="Detector-to-Event" style="stroke:#181818;stroke-width:1;"/><polygon fill="#181818" points="101.73,607.84,105.73,598.84,101.73,602.84,97.73,598.84,101.73,607.84" style="stroke:#181818;stroke-width:1;stroke-linejoin:miter;stroke-miterlimit:10;"/></g><?plantuml-src fLLDJzmm4BtxLrXSe9GWAEe5eJsqe9ugLQNg1Q786yyc5euTsSxIXVBVExPZnx1BYrGfXsG-tyoycTWxeGPcM4-bKE0s0r1jNAS9iLcZD0SB0ptzU5983LDtGNfoGeZJ0tMQBhLpkgTS66YSq8eGqaXcBRqM_IYPquO-4lgUNe930_pYquiNNklHD71pUdnyU4jj-B1UVhK6vMYZfKJJ6lpNmJj2AthL2sin2st1rGY7wxw6IOOMJnuMgZe8MQqpO-Fepv3l0xsuk6IE_S225mklnaGhgPcZluht3Q4OvRdhsPjTy_k33uE1zkSsL3UTu1pKxI8X8li9sfRkZEoJsVMmgkZUwLvkufOA6xWtTPEG7IcvlbSL_GAw1sSsXB0b5iYmm3Yhf8YZIaLh8rgXlEGnsJ_XlBMamjP2MS7XOD1M-B6V9w-j8SGCtr7BL8kup3SZR3yrCQMouW62uD_XmtXYqCyRP32FQT3NC2v6Unud42GTYBPpfUHDyJ533bsDG_LxCRTkgv2N1cNn4MQcVkXkxdMRF50eaEvgxEkcOqg134iGG4-xCSdhUy5TDskpt0wi4QhTeN3Ck3gL6NRE6RJC1lFYPb_N6R2TbdmMSIDMhbw3r8rmcraEVa6DLhKKAt2YXxhVWGx3QJcc9BvMArh5fdBcXH-CnWDWvurEB-TvyO_eRiPD-nhZF4vfdZTlgwci7wHm8vzkJZejAIa9HCZ3gqnLJ3dk6grazTVHJsQl3_uI6hRvX9UiwIPKt4lgPH1vP5LfKzwzqj1Vnxc4ATAMRQhCHlEqVDukgJ9LTlG-D3hMbPlrM711WMatTG_hMOP307ytV6Gka8mA3nHglxBX8XBnA5ekegadHQFL6am0qsXOhS9qqjussdY-0Y-ex7zXpoRe2yg6Cvji1rBMIznhzAe3N05uBxR159MMpI-AHQeksL988UCwl6XzxlGhO_b_TFXCvF8_Xk8lK00c9VWNPWbKoN2EP0uRHFu0?></g></svg>