<svg xmlns="http://www.w3.org/2000/svg" xmlns:xlink="http://www.w3.org/1999/xlink" contentStyleType="text/css" data-diagram-type="CLASS" height="665px" preserveAspectRatio="none" style="width:877px;height:665px;background:#FFFFFF;" version="1.1" viewBox="0 0 877 665" width="877px" zoomAndPan="magnify"><?plantuml $version$?><defs/><g><!--class Vector3--><g class="entity" data-qualified-name="Vector3" data-source-line="8" id="ent0001"><rect fill="#F1F1F1" height="118.6158" rx="2.5" ry="2.5" style="stroke:#181818;stroke-width:0.5;" width="89.6204" x="58.64" y="269.41"/><ellipse cx="73.64" cy="292.116" fill="#F1F1F1" rx="11" ry="11" style="stroke:#181818;stroke-width:1;"/><path d="M73.3119,298.7879 Q72.39,298.7879 71.4994,298.616 Q70.6088,298.4285 69.8275,298.0535 L69.8275,295.8035 Q70.7806,296.2879 71.6556,296.5223 Q72.5463,296.741 73.39,296.741 Q74.265,296.741 74.8275,296.4441 Q75.39,296.1473 75.39,295.366 Q75.39,294.8191 75.0931,294.5223 Q74.7963,294.2098 74.2338,293.9285 Q73.6713,293.6473 72.89,293.241 Q72.1088,292.8191 71.4525,292.3348 Q70.8119,291.8348 70.4369,291.1629 Q70.0619,290.491 70.0619,289.5379 Q70.0619,287.9129 71.1556,287.116 Q72.265,286.3035 74.0463,286.3035 Q74.765,286.3035 75.7494,286.4754 Q76.7338,286.6316 77.6869,287.0848 L76.9056,289.0066 Q76.0619,288.6473 75.3744,288.5066 Q74.7025,288.3504 74.1869,288.3504 Q73.3431,288.3504 72.9525,288.6941 Q72.5775,289.0223 72.5775,289.6629 Q72.5775,290.1473 72.8119,290.4598 Q73.0619,290.7566 73.5306,291.0066 Q74.015,291.2566 74.7494,291.6316 Q75.7494,292.116 76.4525,292.5848 Q77.1556,293.0535 77.5306,293.6785 Q77.9056,294.2879 77.9056,295.2254 Q77.9056,296.4129 77.3275,297.2098 Q76.765,297.991 75.7181,298.3973 Q74.6869,298.7879 73.3119,298.7879 Z " fill="#000000"/><text fill="#000000" font-family="sans-serif" font-size="12" font-style="italic" lengthAdjust="spacing" textLength="61.6204" x="85.64" y="287.2381">&#171;DataType&#187;</text><text fill="#000000" font-family="sans-serif" font-size="14" lengthAdjust="spacing" textLength="50.3298" x="91.2853" y="305.72">Vector3</text><line style="stroke:#181818;stroke-width:0.5;" x1="59.64" x2="147.2604" y1="314.822" y2="314.822"/><g data-visibility-modifier="PUBLIC_FIELD"><ellipse cx="69.64" cy="329.856" fill="none" rx="3" ry="3" style="stroke:#038048;stroke-width:1;"/></g><text fill="#000000" font-family="sans-serif" font-size="14" lengthAdjust="spacing" textLength="40.8519" x="78.64" y="333.788">float x</text><g data-visibility-modifier="PUBLIC_FIELD"><ellipse cx="69.64" cy="348.9239" fill="none" rx="3" ry="3" style="stroke:#038048;stroke-width:1;"/></g><text fill="#000000" font-family="sans-serif" font-size="14" lengthAdjust="spacing" textLength="40.5858" x="78.64" y="352.8559">float y</text><g data-visibility-modifier="PUBLIC_FIELD"><ellipse cx="69.64" cy="367.9918" fill="none" rx="3" ry="3" style="stroke:#038048;stroke-width:1;"/></g><text fill="#000000" font-family="sans-serif" font-size="14" lengthAdjust="spacing" textLength="40.0258" x="78.64" y="371.9238">float z</text><line style="stroke:#181818;stroke-width:0.5;" x1="59.64" x2="147.2604" y1="380.0258" y2="380.0258"/></g><!--class Geometry--><g class="entity" data-qualified-name="Geometry" data-source-line="14" id="ent0002"><rect fill="#F1F1F1" height="86.1358" rx="2.5" ry="2.5" style="stroke:#181818;stroke-width:0.5;" width="220.8933" x="7" y="45.14"/><ellipse cx="83.0197" cy="61.14" fill="#A9DCDF" rx="11" ry="11" style="stroke:#181818;stroke-width:1;"/><path d="M78.1916,66.89 L81.5354,54.7025 L84.676,54.7025 L88.051,66.89 L85.5822,66.89 L84.8479,63.8744 L81.3322,63.8744 L80.5822,66.89 L78.1916,66.89 Z M82.5979,58.8431 L81.8479,61.8431 L84.3635,61.8431 L83.6447,58.8431 Q83.5041,58.265 83.3791,57.7181 Q83.2541,57.1556 83.1135,56.5775 Q83.0041,57.1556 82.8635,57.7181 Q82.7229,58.265 82.5979,58.8431 Z " fill="#000000"/><text fill="#000000" font-family="sans-serif" font-size="14" font-style="italic" lengthAdjust="spacing" textLength="60.3538" x="103.5197" y="66.572">Geometry</text><line style="stroke:#181818;stroke-width:0.5;" x1="8" x2="226.8933" y1="77.14" y2="77.14"/><g data-visibility-modifier="PUBLIC_FIELD"><ellipse cx="18" cy="92.174" fill="none" rx="3" ry="3" style="stroke:#038048;stroke-width:1;"/></g><text fill="#000000" font-family="sans-serif" font-size="14" lengthAdjust="spacing" textLength="92.7076" x="27" y="96.1059">Vector3 origin</text><line style="stroke:#181818;stroke-width:0.5;" x1="8" x2="226.8933" y1="104.2079" y2="104.2079"/><g data-visibility-modifier="PUBLIC_METHOD"><ellipse cx="18" cy="119.2419" fill="#84BE84" rx="3" ry="3" style="stroke:#038048;stroke-width:1;"/></g><text fill="#000000" font-family="sans-serif" font-size="14" font-style="italic" lengthAdjust="spacing" textLength="194.8933" x="27" y="123.1739">bool is_inside(position: Vector3)</text></g><!--class Source--><g class="entity" data-qualified-name="Source" data-source-line="19" id="ent0003"><rect fill="#F1F1F1" height="162.4075" rx="2.5" ry="2.5" style="stroke:#181818;stroke-width:0.5;" width="377.7207" x="384.59" y="7"/><ellipse cx="546.5974" cy="23" fill="#ADD1B2" rx="11" ry="11" style="stroke:#181818;stroke-width:1;"/><path d="M546.0662,29.9219 Q544.3162,29.9219 543.1756,29.1875 Q542.0506,28.4375 541.4881,27.0938 Q540.9412,25.7344 540.9412,23.9375 Q540.9412,21.9063 541.5974,20.4531 Q542.2537,19 543.5349,18.2188 Q544.8162,17.4375 546.6912,17.4375 Q547.5818,17.4375 548.2537,17.625 Q548.9256,17.7969 549.6131,18.1406 L548.8006,20.1563 Q548.1756,19.8438 547.6287,19.7188 Q547.0974,19.5938 546.6131,19.5938 Q545.4412,19.5938 544.7381,20.125 Q544.0349,20.6563 543.7381,21.6094 Q543.4412,22.5625 543.4412,23.8281 Q543.4412,25.8438 544.1599,26.8125 Q544.8787,27.7656 546.4724,27.7656 Q547.0662,27.7656 547.6912,27.6094 Q548.3162,27.4531 549.1443,27.0781 L549.1443,29.2969 Q548.4099,29.6094 547.6131,29.7656 Q546.8318,29.9219 546.0662,29.9219 Z " fill="#000000"/><text fill="#000000" font-family="sans-serif" font-size="14" lengthAdjust="spacing" textLength="45.2058" x="567.0974" y="28.432">Source</text><line style="stroke:#181818;stroke-width:0.5;" x1="385.59" x2="761.3107" y1="39" y2="39"/><g data-visibility-modifier="PUBLIC_FIELD"><ellipse cx="395.59" cy="54.034" fill="none" rx="3" ry="3" style="stroke:#038048;stroke-width:1;"/></g><text fill="#000000" font-family="sans-serif" font-size="14" lengthAdjust="spacing" textLength="133.0975" x="404.59" y="57.9659">Geometry geometry</text><g data-visibility-modifier="PUBLIC_FIELD"><ellipse cx="395.59" cy="73.1019" fill="none" rx="3" ry="3" style="stroke:#038048;stroke-width:1;"/></g><text fill="#000000" font-family="sans-serif" font-size="14" lengthAdjust="spacing" textLength="351.7207" x="404.59" y="77.0339">Map&lt;String, float&gt; daughter_shell_to_binding_energy</text><g data-visibility-modifier="PUBLIC_FIELD"><ellipse cx="395.59" cy="92.1698" fill="none" rx="3" ry="3" style="stroke:#038048;stroke-width:1;"/></g><text fill="#000000" font-family="sans-serif" font-size="14" lengthAdjust="spacing" textLength="227.9751" x="404.59" y="96.1018">DecayBranch[1..*] decay_branches</text><line style="stroke:#181818;stroke-width:0.5;" x1="385.59" x2="761.3107" y1="104.2038" y2="104.2038"/><g data-visibility-modifier="PRIVATE_METHOD"><rect fill="#F24D5C" height="6" style="stroke:#C82930;stroke-width:1;" width="6" x="392.59" y="116.2377"/></g><text fill="#000000" font-family="sans-serif" font-size="14" lengthAdjust="spacing" textLength="275.7849" x="404.59" y="123.1697">DecayBranch get_random_decay_branch()</text><g data-visibility-modifier="PUBLIC_METHOD"><ellipse cx="395.59" cy="138.3056" fill="#84BE84" rx="3" ry="3" style="stroke:#038048;stroke-width:1;"/></g><text fill="#000000" font-family="sans-serif" font-size="14" lengthAdjust="spacing" textLength="299.4449" x="404.59" y="142.2376">Emission[1..*] get_random_decay_emissions()</text><g data-visibility-modifier="PUBLIC_METHOD"><ellipse cx="395.59" cy="157.3735" fill="#84BE84" rx="3" ry="3" style="stroke:#038048;stroke-width:1;"/></g><text fill="#000000" font-family="sans-serif" font-size="14" lengthAdjust="spacing" textLength="333.0588" x="404.59" y="161.3055">Vector3 get_emission_position(emission: Emission)</text></g><!--class Emission--><g class="entity" data-qualified-name="Emission" data-source-line="28" id="ent0004"><rect fill="#F1F1F1" height="162.4075" rx="2.5" ry="2.5" style="stroke:#181818;stroke-width:0.5;" width="531.8182" x="314.54" y="488.02"/><ellipse cx="546.8832" cy="504.02" fill="#ADD1B2" rx="11" ry="11" style="stroke:#181818;stroke-width:1;"/><path d="M546.352,510.9419 Q544.602,510.9419 543.4613,510.2075 Q542.3363,509.4575 541.7738,508.1138 Q541.227,506.7544 541.227,504.9575 Q541.227,502.9263 541.8832,501.4731 Q542.5395,500.02 543.8207,499.2388 Q545.102,498.4575 546.977,498.4575 Q547.8676,498.4575 548.5395,498.645 Q549.2113,498.8169 549.8988,499.1606 L549.0863,501.1763 Q548.4613,500.8638 547.9145,500.7388 Q547.3832,500.6138 546.8988,500.6138 Q545.727,500.6138 545.0238,501.145 Q544.3207,501.6763 544.0238,502.6294 Q543.727,503.5825 543.727,504.8481 Q543.727,506.8638 544.4457,507.8325 Q545.1645,508.7856 546.7582,508.7856 Q547.352,508.7856 547.977,508.6294 Q548.602,508.4731 549.4301,508.0981 L549.4301,510.3169 Q548.6957,510.6294 547.8988,510.7856 Q547.1176,510.9419 546.352,510.9419 Z " fill="#000000"/><text fill="#000000" font-family="sans-serif" font-size="14" lengthAdjust="spacing" textLength="58.6318" x="567.3832" y="509.452">Emission</text><line style="stroke:#181818;stroke-width:0.5;" x1="315.54" x2="845.3582" y1="520.02" y2="520.02"/><g data-visibility-modifier="PUBLIC_FIELD"><ellipse cx="325.54" cy="535.054" fill="none" rx="3" ry="3" style="stroke:#038048;stroke-width:1;"/></g><text fill="#000000" font-family="sans-serif" font-size="14" lengthAdjust="spacing" textLength="113.7355" x="334.54" y="538.9859">float energy_mev</text><g data-visibility-modifier="PUBLIC_FIELD"><ellipse cx="325.54" cy="554.1219" fill="none" rx="3" ry="3" style="stroke:#038048;stroke-width:1;"/></g><text fill="#000000" font-family="sans-serif" font-size="14" lengthAdjust="spacing" textLength="166.1234" x="334.54" y="558.0539">float interaction_distance</text><g data-visibility-modifier="PUBLIC_FIELD"><ellipse cx="325.54" cy="573.1898" fill="none" rx="3" ry="3" style="stroke:#038048;stroke-width:1;"/></g><text fill="#000000" font-family="sans-serif" font-size="14" lengthAdjust="spacing" textLength="300.4528" x="334.54" y="577.1218">Map&lt;String, float&gt; internal_conversion_coeffs</text><g data-visibility-modifier="PUBLIC_FIELD"><ellipse cx="325.54" cy="592.2577" fill="none" rx="3" ry="3" style="stroke:#038048;stroke-width:1;"/></g><text fill="#000000" font-family="sans-serif" font-size="14" lengthAdjust="spacing" textLength="112.2656" x="334.54" y="596.1897">bool is_corrected</text><g data-visibility-modifier="PUBLIC_FIELD"><ellipse cx="325.54" cy="611.3256" fill="none" rx="3" ry="3" style="stroke:#038048;stroke-width:1;"/></g><text fill="#000000" font-family="sans-serif" font-size="14" lengthAdjust="spacing" textLength="71.7357" x="334.54" y="615.2576">String type</text><line style="stroke:#181818;stroke-width:0.5;" x1="315.54" x2="845.3582" y1="623.3596" y2="623.3596"/><g data-visibility-modifier="PUBLIC_METHOD"><ellipse cx="325.54" cy="638.3935" fill="#84BE84" rx="3" ry="3" style="stroke:#038048;stroke-width:1;"/></g><text fill="#000000" font-family="sans-serif" font-size="14" lengthAdjust="spacing" textLength="505.8182" x="334.54" y="642.3255">Emission get_corrected_emission(shell_binding_energies: Map&lt;String, float&gt;)</text></g><!--class DecayBranch--><g class="entity" data-qualified-name="DecayBranch" data-source-line="37" id="ent0005"><rect fill="#F1F1F1" height="105.2038" rx="2.5" ry="2.5" style="stroke:#181818;stroke-width:0.5;" width="564.256" x="298.32" y="276.11"/><ellipse cx="532.9032" cy="292.11" fill="#ADD1B2" rx="11" ry="11" style="stroke:#181818;stroke-width:1;"/><path d="M532.3719,299.0319 Q530.6219,299.0319 529.4813,298.2975 Q528.3563,297.5475 527.7938,296.2037 Q527.2469,294.8444 527.2469,293.0475 Q527.2469,291.0162 527.9032,289.5631 Q528.5594,288.11 529.8407,287.3287 Q531.1219,286.5475 532.9969,286.5475 Q533.8875,286.5475 534.5594,286.735 Q535.2313,286.9069 535.9188,287.2506 L535.1063,289.2662 Q534.4813,288.9537 533.9344,288.8287 Q533.4032,288.7037 532.9188,288.7037 Q531.7469,288.7037 531.0438,289.235 Q530.3407,289.7662 530.0438,290.7194 Q529.7469,291.6725 529.7469,292.9381 Q529.7469,294.9537 530.4657,295.9225 Q531.1844,296.8756 532.7782,296.8756 Q533.3719,296.8756 533.9969,296.7194 Q534.6219,296.5631 535.45,296.1881 L535.45,298.4069 Q534.7157,298.7194 533.9188,298.8756 Q533.1375,299.0319 532.3719,299.0319 Z " fill="#000000"/><text fill="#000000" font-family="sans-serif" font-size="14" lengthAdjust="spacing" textLength="86.5896" x="553.4032" y="297.542">DecayBranch</text><line style="stroke:#181818;stroke-width:0.5;" x1="299.32" x2="861.576" y1="308.11" y2="308.11"/><g data-visibility-modifier="PUBLIC_FIELD"><ellipse cx="309.32" cy="323.144" fill="none" rx="3" ry="3" style="stroke:#038048;stroke-width:1;"/></g><text fill="#000000" font-family="sans-serif" font-size="14" lengthAdjust="spacing" textLength="108.0236" x="318.32" y="327.0759">float probabililty</text><g data-visibility-modifier="PUBLIC_FIELD"><ellipse cx="309.32" cy="342.2119" fill="none" rx="3" ry="3" style="stroke:#038048;stroke-width:1;"/></g><text fill="#000000" font-family="sans-serif" font-size="14" lengthAdjust="spacing" textLength="160.1594" x="318.32" y="346.1439">Emission[1..*] emissions</text><line style="stroke:#181818;stroke-width:0.5;" x1="299.32" x2="861.576" y1="354.2458" y2="354.2458"/><g data-visibility-modifier="PUBLIC_METHOD"><ellipse cx="309.32" cy="369.2798" fill="#84BE84" rx="3" ry="3" style="stroke:#038048;stroke-width:1;"/></g><text fill="#000000" font-family="sans-serif" font-size="14" lengthAdjust="spacing" textLength="538.256" x="318.32" y="373.2118">Emission[1..*] get_corrected_emission(shell_binding_energies: Map&lt;String, float&gt;)</text></g><!--reverse link Source to DecayBranch--><g class="link" data-entity-1="ent0003" data-entity-2="ent0005" data-link-type="composition" data-source-line="43" id="lnk6"><path codeLine="43" d="M573.45,181.63 C573.45,216.65 573.45,244.6 573.45,275.7" fill="none" id="Source-backto-DecayBranch" style="stroke:#181818;stroke-width:1;"/><polygon fill="#181818" points="573.45,169.63,569.45,175.63,573.45,181.63,577.45,175.63,573.45,169.63" style="stroke:#181818;stroke-width:1;stroke-linejoin:miter;stroke-miterlimit:10;"/><text fill="#000000" font-family="sans-serif" font-size="13" lengthAdjust="spacing" textLength="7.436" x="566.1679" y="191.2854">1</text><text fill="#000000" font-family="sans-serif" font-size="13" lengthAdjust="spacing" textLength="21.567" x="550.1368" y="264.3788">1..*</text></g><!--reverse link DecayBranch to Emission--><g class="link" data-entity-1="ent0005" data-entity-2="ent0004" data-link-type="composition" data-source-line="44" id="lnk7"><path codeLine="44" d="M580.45,393.79 C580.45,424.92 580.45,452.89 580.45,487.91" fill="none" id="DecayBranch-backto-Emission" style="stroke:#181818;stroke-width:1;"/><polygon fill="#181818" points="580.45,381.79,576.45,387.79,580.45,393.79,584.45,387.79,580.45,381.79" style="stroke:#181818;stroke-width:1;stroke-linejoin:miter;stroke-miterlimit:10;"/><text fill="#000000" font-family="sans-serif" font-size="13" lengthAdjust="spacing" textLength="7.436" x="573.0503" y="403.2349">1</text><text fill="#000000" font-family="sans-serif" font-size="13" lengthAdjust="spacing" textLength="21.567" x="558.4763" y="476.2803">1..*</text></g><!--reverse link Geometry to Source--><g class="link" data-entity-1="ent0002" data-entity-2="ent0003" data-link-type="dependency" data-source-line="46" id="lnk9"><path codeLine="46" d="M233.12,88.43 C280.04,88.43 331.08,88.43 384.22,88.43" fill="none" id="Geometry-backto-Source" style="stroke:#181818;stroke-width:1;"/><polygon fill="#181818" points="228.12,88.43,237.12,92.43,233.12,88.43,237.12,84.43,228.12,88.43" style="stroke:#181818;stroke-width:1;stroke-linejoin:miter;stroke-miterlimit:10;"/></g><!--link Geometry to Vector3--><?plantuml-src fL8zRzim4DtvAmwUdBGAR1HT3CD3aQ9JfnHTWe2WnBDq2CKJI3ge6-I_bvH4cKsJgPDExzuzlllmZsG7vLGFXYo6yu30BdGiX5yobZLw763xULEWJjd74TriX0WyG62eEGJkGPF39X3Rg1BSgGdmC_wp-mJx_QqAwaTyvd20Pm4Vu6XO1VXr2S-NyBTu4KBLKKD5ZSOex-4RSe_1dQVghCkEMh89USxyb-Y63P2NP3rfN0_iAPdQvQgh93-ftl79DJXfBY-qSv30xshOtmL7jlqucJk0LgUs2-Yaxz0O6LZMP7LaIBJesh7i5Xjr_X97rNJtsvkRwmVG2P7r2A4NK9MS-6IGCTBSovAulafYNtloFZOmA_t3nJdl9tgUJUBbbCn3M6TajyWMuyXGkQAfATdZqmKZ6_jNuwgb9X-YLtndMYFLAYCRja_eHZCDu_7eKq5ULSCkdGxg14uAa8woR7ziQ24khQsdDVor0qA_UyDCqMav_ABPmN6jQZ9amlcDqI-JVcSj_-zkFiZLTWNNLHM_KNjLkXMbyrUqx6YHgKnrMEvQB0TUtNUaDTe77TFpkVm1?></g></svg>